<?xml version="1.0" encoding="utf-8"?>
<!-- Generator: Adobe Illustrator 19.0.0, SVG Export Plug-In . SVG Version: 6.00 Build 0)  -->
<svg version="1.1" id="Calque_1" xmlns="http://www.w3.org/2000/svg" xmlns:xlink="http://www.w3.org/1999/xlink" x="0px" y="0px"
	 viewBox="0 0 200 200" style="enable-background:new 0 0 200 200;" xml:space="preserve">
<path id="XMLID_458_" d="M172.6,128.5c0,5.7-5.5,10.4-12.5,10.8c0-0.1,0-0.2,0-0.3v-0.1c0-0.3,0-0.6-0.1-0.8c0.2,0,0.3-0.1,0.5-0.1
	c5.7-0.8,10-4.7,10-9.3c0-5.2-5.5-9.4-12.3-9.4c-6.8,0-12.2,4.2-12.3,9.4c0,0,0-0.1,0-0.1c0-6,6-10.8,13.4-10.8
	C166.6,117.7,172.6,122.5,172.6,128.5z"/>
<path id="XMLID_457_" d="M131.3,123.4c0,0,30.1-16.4,47.3,1.6c0,0,2.8-7.2,6.1-6.9l-1.7-1.5l-4.7,4.2c0,0-8.3-6.6-23.5-5.5
	c-5.9,0.4-14.3,3.2-22.8,6.6l-2.6-3.2l-1.1,0.7L131.3,123.4z"/>
<path id="XMLID_456_" d="M156.7,113.5c0.5-0.5,1.1-1.7,0.5-3.5c0,0-6.6-0.6-10.5,2.9l-1.8-0.9c0,0,1.8-3.8,7.8-4.4
	c6-0.7,10.6-0.3,10.6-0.3l-0.1,2.7l-3.5,0c0,0-1.3,5,1.4,3.9c3.5-1.5,4.4-1.8,4.1-0.9l-0.7,2.1c0,0-7-0.9-8.6-0.3l-0.7-0.9v0l0.7,0
	C156.2,113.9,156.5,113.7,156.7,113.5z"/>
<path id="XMLID_455_" d="M162.7,113.1l6.3-3.6c0.1-0.1,0.2-0.2,0.3-0.3c0.2-0.3,0.3-0.5,0.4-0.8l2-5.8c0.1-0.1,0.1-0.3,0.1-0.5
	c-0.1-0.9-0.3-3.8,0.5-4.4c0.9-0.7-2.2-4-2.2-4s-0.3-0.5,0-0.7c0.3-0.2,1.9-2,2.4-0.7c0.3,1,1.3,3.4,1.8,4.5
	c0.2,0.4,0.1,0.8-0.1,1.1c-0.1,0.1-0.2,0.3-0.4,0.6c-0.3,0.7-0.4,1.4-0.3,1.9c0.1,0.2,0.1,0.4,0,0.7l-2.8,9.7
	c-0.1,0.4,0,0.9,0.4,1.2c0,0,0,0,0,0c0.3,0.2,0.5,0.6,0.5,1l-0.2,2.4c0,0.6-0.6,1.1-1.1,0.9l-5.9-1.2c-0.1,0-0.1,0-0.2-0.1l-1.2-0.5
	C162.4,114.2,162,113.5,162.7,113.1z"/>
<path id="XMLID_454_" d="M160,139.3c0,0-10.6-0.2-21-5.7c-1.5-0.8-3.1-1.4-4.8-2.4c0,0-0.9-0.3-1-0.4l0.6-0.3c0,0,20.1,9,26.5,7.5"
	/>
<g id="XMLID_448_">
	<ellipse id="XMLID_453_" cx="158.4" cy="127.7" rx="1.3" ry="1.3"/>
	<rect id="XMLID_452_" x="158.1" y="120.3" width="0.5" height="14.5"/>
	<rect id="XMLID_451_" x="151.6" y="127.3" width="13.7" height="0.5"/>
	<polygon id="XMLID_450_" points="154.1,122.1 153.8,122.4 162.6,133.4 163,133.1 	"/>
	<polygon id="XMLID_449_" points="163.7,123.2 163.4,122.9 153,132.3 153.3,132.6 	"/>
</g>
<path id="XMLID_447_" d="M140.7,119.3c0,0-0.2-3.4-0.6-4.3c-0.1-0.3-0.1-0.5,0-0.6c0.2-0.2,0.5,0,0.5,0.3c0,0.2,0,0.3,0.2,0.3
	c0.2-0.1,0.5-0.2,0.8-0.2c0.2-0.1,0.4,0.1,0.4,0.3c0,0.2,0,0.3-0.2,0.4c-0.6,0.2-0.5,0.2-0.9,0.3c-0.2,0.1,0.7,2.4,1,3.1"/>
<path id="XMLID_446_" d="M20.6,96.8c0.6,0.6,1,1.6,1,2.6c0,2-1.5,3.6-3.2,3.6c-0.7,0-1.4-0.3-2-0.7c0.6,0.6,1.4,1,2.3,1
	c1.8,0,3.2-1.6,3.2-3.6C21.9,98.5,21.4,97.4,20.6,96.8z"/>
<path id="XMLID_445_" d="M18.2,103.2c0,0,0.6,0.5-0.4,0.6c-1,0.2-3.7,5-4,4.9c-0.1,0-0.3,0.3-0.4,0.6c-0.1,0.2-0.3,0.3-0.5,0.3
	l-1.2-0.1c-0.1,0-0.2-0.1-0.3-0.2c-0.3-0.4-1.2-1.5-1.5-2.4c-0.3-1.1,0-1.5,0-1.5l2.7-5.4c0-0.1,0.1-0.1,0.1-0.2l0.1-2.5
	c0-0.1,0-0.2,0.1-0.3l0.3-0.4c0.3-0.5,1-0.1,0.8,0.4l0,0c0,0,0,0.1,0,0.1l-0.5,2.7c0,0.1,0,0.1,0,0.1l-2.6,5.2
	c-0.1,0.1-0.1,0.3,0,0.4c0.1,0.2,0.2,0.6,0,1c-0.3,0.6,0.5,1.7,0.8,2c0,0.1,0.1,0.1,0.2,0.1l0.9,0.4c0.2,0.1,0.5,0,0.6-0.2
	c0.2-0.3,0.6-0.8,0.8-0.8C14.1,108.4,17.1,102.9,18.2,103.2z"/>
<path id="XMLID_444_" d="M13.6,89.6l3,2.3l-0.7,2.3C15.9,94.2,13.6,91.9,13.6,89.6z"/>
<path id="XMLID_443_" d="M21.9,103.9"/>
<path id="XMLID_442_" d="M67.2,107.9c0,0,5-8.1,12.1-4.6c0,0-0.9-1-4.4,0.9c0,0,6.5-1.1,8.4,2.7c0,0-3.8-2.6-8.8-0.8
	C74.5,106.2,69.6,105.8,67.2,107.9z"/>
<path id="XMLID_441_" d="M21.9,126.9"/>
<path id="XMLID_440_" d="M24.7,111.2c0,0,0.1,1.4,0.5,2.4c0.5,1.1,1.1,1.2,1.1,2.6c0,1.4,2.3,3.3,3.6,3l-1.8,1.1
	c0,0-3.3-1.3-2.8-3.7c0.3-1.7-0.9-3.5-0.8-4.3"/>
<path id="XMLID_439_" d="M30,119.1c0,0-2.6,1.8-2.9,2.1c-0.3,0.3,1.2-1.3,1.2-1.3"/>
<path id="XMLID_438_" d="M13.2,142.6c0,0-0.6-1.4,1.7-4.9c2.3-3.4,14.8-18.4,14.8-18.4l-2.5,1.8l-5,6l-4.1,5.3l-4.5,7
	C13.6,139.4,10.9,141.5,13.2,142.6z"/>
<path id="XMLID_437_" d="M9.1,102.8"/>
<path id="XMLID_436_" d="M12.9,141.8c-0.1-0.1-0.1-0.1-0.1-0.2c-0.1-0.3,1.1-2.8,2.6-4.9c1.4-2.1,3.1-4,3.1-4"/>
<path id="XMLID_435_" d="M17.4,92.9c0,0,0.1-1,0.2-0.9c1.7,0.5,13,4.1,21.1,11.9c8.8,8.5,16.8,3.6,16.8,3.6s8.3-2.8,11.4,5.7
	c3.2,8.5,0.8,8.9,3,11.8c0,0,0.7-14.8-7.2-17.5c-7.9-2.6-13,3.3-20.1-1.9S23.1,92.8,17.6,92.8"/>
<path id="XMLID_434_" d="M81.8,141.9c0,0,2.4-0.2,1.4-1.9c-1-1.7-0.8-1.2-0.8-1.2s-0.3-0.6-1.2-1.1s-3.3-1.9-3.7-4
	c-0.3-2-0.9-5.8-5.1-7.2l-2.5-1.5c0,0,1.6,1.9,2.2,2.1c0.6,0.1,4.3,1.1,4.8,6.6c0,0,0.7,3.6,3.9,4.5c0,0,1,0.4,1.5,1.6
	S81.8,141.9,81.8,141.9z"/>
<path id="XMLID_433_" d="M70,122.5c0,0,1.4,3.2,2.4,3.9c1,0.7-0.3,0.6-0.3,0.6s-3.4-2.2-3.1-4.5S70,122.5,70,122.5z"/>
<path id="XMLID_432_" d="M20.6,103.9c0,0,3.2,1,4,4C24.6,107.9,23.8,102,20.6,103.9z"/>
<path id="XMLID_431_" d="M56.8,117.6c0,0,7.8,9.3,9.2,8.1c1.4-1.2,2.9,3.5,4,3.5s2.5-0.2,4.5,2.5s3.9,7.8,3.9,7.8s-5.1-9.1-6.7-9.2
	c-1.6-0.1-1.7,0-3.3-1.3c-1.6-1.2-2.4-1.9-3-1.9c-0.6,0-3-1-4.1-2.1C60.2,124,56.8,117.6,56.8,117.6z"/>
<path id="XMLID_430_" d="M80.1,140.9c0.3,0.8,1.7,1.1,1.7,1.1s-2.9,0.9-2.6-0.3c0.2-1.2-0.8-2.2-0.8-2.2S80,140.4,80.1,140.9z"/>
<path id="XMLID_429_" d="M56.6,118C56.6,118,56.6,118,56.6,118c0,2-5.4,3.9-10.2,4.8c-1.1,0.2-2.4,0.3-3.3,0.4
	c-5.3,0.6-9.3,0.7-10.2-0.9c0.3,2.2,4.5,2.1,10.5,1.5c1-0.1,2.2-0.2,3.3-0.4c4.8-0.8,10.2-2.7,10.2-4.7
	C56.8,118.4,56.8,118.2,56.6,118z"/>
<path id="XMLID_428_" d="M34.2,123.7c0,0,2.3,1.8,2.6,7.3l0.3-4.7c0,0,0-0.5,0.1-1.1c0.1-0.5,0.2-1.1,1-1.1L34.2,123.7z"/>
<path id="XMLID_427_" d="M52.5,121.7l0.9,3.3l1.3,3.5c0,0-0.4-6.8,1.4-8.6C56.1,119.9,54,121.5,52.5,121.7z"/>
<path id="XMLID_426_" d="M38.2,134c0,0,6,2.1,6.6,4.1c0,0,0,1.4,0.1,2.1C44.9,140.2,45,137.6,38.2,134z"/>
<path id="XMLID_425_" d="M34.2,120.8c0,0-13.4,8.9-14.7,13.8C19.5,134.5,27.1,126.3,34.2,120.8z"/>
<path id="XMLID_424_" d="M36.4,128.2c0,0,0.1,0.5-0.1,1c-0.6,1.5,0.3,4.5,3.2,5.5c0.1,0,0-0.1-0.1-0.2c-0.7-0.3-1.7-1.1-2.3-2.6
	c-0.3-0.8-0.5-2.1-0.2-3.2"/>
<path id="XMLID_423_" d="M32.9,124.9c0,0,0.4,5.7,0.8,6.6c0.4,0.9-0.8,1.4,1.2,3.1s2.6,1.4,5.1,3.7c0,0-2.9-3.1-4.4-3.8
	s-1.3-3-1.3-3"/>
<path id="XMLID_422_" d="M39.9,138.3l1.2,0.8c0.3,0.1,0.5,0.3,0.7,0.6l1,1.5c0,0,1.1,1.5,2.1-0.3c0,0-1.4,1.4-1.9-0.4
	c-0.5-1.8-4.2-3.4-4.2-3.4L39.9,138.3z"/>
<path id="XMLID_421_" d="M55,129c0,0,0.9,1.8-0.1,4.6l-10,7.7c0,0-2,2.4,0.7,2.9c0,0-2.1-0.7-0.4-2.8l9.1-7
	C54.4,134.5,57.6,132.8,55,129z"/>
<path id="XMLID_420_" d="M58.5,121.7l0.2,2.3c0,0-0.3,4.8,0.4,6.3c0.7,1.5-0.2,3.9-0.2,3.9l1.4-1c0,0,0.3-1.8-0.6-2.9
	c-0.9-1.1-0.6-6.3-0.6-6.3L58.5,121.7z"/>
<path id="XMLID_419_" d="M58.9,134.2c0,0-8.1,4.3-7.9,6.8C50.9,141,53.7,136.9,58.9,134.2z"/>
<path id="XMLID_418_" d="M48.1,144.2l0.9-1.5c0,0,1.9,0.2,1.9-1.7c0,0-0.8,1.7-2,1.3C47.7,141.9,48.1,144.2,48.1,144.2"/>
<path id="XMLID_417_" d="M16.1,141.7c0.8,0,2.9-0.3,1.9-4.4l1.4-2.6l-0.9,2.3l0,2.9c0,0,0.6,0.7-0.2,1.2c-0.7,0.6-2.1,1.7-4.1,1.6
	C14.2,142.8,16,142.6,16.1,141.7z"/>
<path id="XMLID_416_" d="M72.2,140c6.6-2.2,43.7-13.9,61.9-9c0.4,0.1,0.9,0.2,1.3,0.3c0.1,0,0.2-0.1,0.1-0.1
	c-5-2.3-26.3-9.9-63.3,8.7C72.1,139.9,72.1,140.1,72.2,140z"/>
<path id="XMLID_415_" d="M73.5,139.3c0,0-15.8,3.4-20-1.2l-1.6,1c0,0,14.1,5,22.6,0.1"/>
<path id="XMLID_414_" d="M30.8,129.1c-4.4-0.1-15.7-2.5-15.2-7.8c0.1-1.4,5.5-7.8,8.6-12.2c-0.3-0.7-0.5-1.7-0.7-2.7
	c-1.2,2.1-3.3,5.3-7.4,9.6c-7.9,8.3,4.3,15.6,12.5,14.8c8.2-0.8,22.1,7.1,22.1,6.7s0.9-0.7,0.9-0.7S38.4,129.3,30.8,129.1z"/>
<path id="XMLID_413_" d="M31.7,96.4c0,0,7.8-1.6,5.5,9.3c-2.3,10.9,10.4,5.5,10.4,5.5s-10.4,7.6-12.7-6.8c0,0,1.8-7.4-1.9-5.9
	l-2.9-1.9L31.7,96.4z"/>
<path id="XMLID_412_" d="M153.4,104.9L153.4,104.9c0.1,0.1,0.2,0.1,0.3,0.1h25.8c0.5,0,0.7,0.6,0.5,1l-6.8,10
	c-0.2,0.3-0.1,0.7,0.2,0.9l0.2,0.1c0.3,0.2,0.6,0.1,0.8-0.2l8.1-12.1c0.3-0.4,0-1-0.5-1h-28.3C153.1,103.8,152.9,104.6,153.4,104.9z
	"/>
<g id="XMLID_71_">
	<path id="XMLID_72_" d="M83.3,82.6v1.2h-3.6v2.8h3.6v1.2h-3.6v2.8h3.6v1.2h-4.7v-9.2H83.3z"/>
	<path id="XMLID_74_" d="M89.3,89.8l1.1,0.4c-0.3,0.4-0.5,0.7-0.6,0.8c-0.6,0.6-1.3,1-2.2,1c-0.9,0-1.6-0.3-2.2-1
		c-0.6-0.6-0.9-1.4-0.9-2.3c0-0.9,0.3-1.7,0.9-2.3s1.3-1,2.2-1c0.9,0,1.6,0.3,2.2,1c0.1,0.1,0.3,0.4,0.6,0.8l-1.1,0.4
		c-0.1-0.2-0.2-0.3-0.3-0.4c-0.4-0.4-0.8-0.6-1.4-0.6c-0.5,0-1,0.2-1.4,0.6c-0.4,0.4-0.6,0.9-0.6,1.5c0,0.6,0.2,1,0.6,1.5
		s0.8,0.6,1.4,0.6c0.5,0,1-0.2,1.4-0.6C89,90.1,89.1,90,89.3,89.8z"/>
	<path id="XMLID_76_" d="M94.1,91.9c-0.7,0-1.3-0.2-1.7-0.7s-0.7-1-0.7-1.7v-3.6h1.1v3.6c0,0.3,0.1,0.6,0.4,0.9s0.5,0.4,0.9,0.4
		c0.3,0,0.6-0.1,0.8-0.4s0.4-0.5,0.4-0.9v-3.6h1.1v3.6c0,0.7-0.2,1.3-0.7,1.7C95.3,91.7,94.8,91.9,94.1,91.9z"/>
	<path id="XMLID_78_" d="M99.2,86.7c0.4-0.6,0.9-0.9,1.6-1V87c-0.4,0-0.7,0.2-1,0.4c-0.4,0.4-0.6,0.8-0.6,1.4v3.1H98v-5.9h1.1V86.7z
		"/>
	<path id="XMLID_80_" d="M103.1,83.7c0.2,0.2,0.2,0.4,0.2,0.6s-0.1,0.4-0.2,0.6c-0.2,0.2-0.3,0.2-0.6,0.2c-0.2,0-0.4-0.1-0.6-0.2
		c-0.2-0.2-0.2-0.4-0.2-0.6s0.1-0.4,0.2-0.6c0.2-0.2,0.3-0.2,0.6-0.2C102.8,83.4,103,83.5,103.1,83.7z M103.1,85.9v5.9H102v-5.9
		H103.1z"/>
	<path id="XMLID_83_" d="M106.6,90.5c0.2,0.2,0.5,0.3,1,0.3c0.5,0,1-0.2,1.4-0.6c0-0.1,0.1-0.2,0.3-0.4l1.1,0.4
		c-0.3,0.4-0.5,0.7-0.6,0.8c-0.6,0.6-1.3,1-2.2,1c-0.9,0-1.6-0.3-2.2-1c-0.6-0.6-0.9-1.4-0.9-2.3c0-0.9,0.3-1.7,0.9-2.3s1.3-1,2.2-1
		c0.7,0,1.4,0.2,1.9,0.7c0.1,0.1,0.2,0.2,0.3,0.3c0,0,0.1,0.2,0.3,0.4l-0.6,0.6L106.6,90.5z M108.5,86.8c-0.1-0.1-0.4-0.2-0.9-0.2
		c-0.5,0-1,0.2-1.4,0.6c-0.4,0.4-0.6,0.9-0.6,1.5c0,0.5,0,0.8,0.1,0.9L108.5,86.8z"/>
</g>
<g id="XMLID_86_">
	<path id="XMLID_87_" d="M113,91.8v-9.2h1.1v8h3.1v1.2H113z"/>
	<path id="XMLID_89_" d="M121.8,82.6l3.2,9.2h-1.2l-1.1-3.3h-2.3l-1.1,3.3H118l3.2-9.2H121.8z M122.2,87.4l-0.7-2.2l-0.7,2.2H122.2z
		"/>
	<path id="XMLID_92_" d="M130.6,82.6h1.1v6.5c-0.1,0.7-0.4,1.4-0.9,1.9c-0.6,0.6-1.3,0.9-2.1,0.9c-0.8,0-1.5-0.3-2.1-0.9
		s-0.9-1.4-0.9-2.2v-6.2h1.1v6.2c0,0.5,0.2,1,0.5,1.4c0.4,0.4,0.8,0.6,1.3,0.6c0.5,0,0.9-0.2,1.3-0.6c0.4-0.4,0.5-0.8,0.5-1.4V82.6z
		"/>
	<path id="XMLID_94_" d="M135.5,88.9h-1v3h-1.1v-9.2h2.5c0.7,0.1,1.3,0.4,1.8,0.9c0.6,0.6,0.9,1.4,0.9,2.2c0,0.9-0.3,1.6-0.9,2.2
		c-0.4,0.4-0.7,0.7-0.9,0.7l1.9,3.2h-1.4L135.5,88.9z M134.5,83.8v3.9h1c0.5,0,0.9-0.2,1.3-0.6c0.4-0.4,0.5-0.8,0.5-1.4
		c0-0.5-0.2-1-0.5-1.4c-0.4-0.4-0.8-0.6-1.3-0.6H134.5z"/>
	<path id="XMLID_97_" d="M141,82.6v9.2h-1.1v-9.2H141z"/>
	<path id="XMLID_99_" d="M147.4,82.6v1.2h-3.6v2.8h3.6v1.2h-3.6v2.8h3.6v1.2h-4.7v-9.2H147.4z"/>
</g>
<g id="XMLID_1_">
	<path id="XMLID_4_" d="M14,64.3v1.2h-3.6v2.8H14v1.2h-3.6v2.8H14v1.2H9.3v-9.2H14z"/>
	<path id="XMLID_6_" d="M19.9,71.5l1.1,0.4c-0.3,0.4-0.5,0.7-0.6,0.8c-0.6,0.6-1.3,1-2.2,1c-0.9,0-1.6-0.3-2.2-1
		c-0.6-0.6-0.9-1.4-0.9-2.3c0-0.9,0.3-1.7,0.9-2.3s1.3-1,2.2-1c0.9,0,1.6,0.3,2.2,1c0.1,0.1,0.3,0.4,0.6,0.8l-1.1,0.4
		c-0.1-0.2-0.2-0.3-0.3-0.4c-0.4-0.4-0.8-0.6-1.4-0.6c-0.5,0-1,0.2-1.4,0.6c-0.4,0.4-0.6,0.9-0.6,1.5c0,0.6,0.2,1,0.6,1.5
		s0.8,0.6,1.4,0.6c0.5,0,1-0.2,1.4-0.6C19.7,71.8,19.7,71.7,19.9,71.5z"/>
	<path id="XMLID_8_" d="M25.1,67.1c0.9,0,1.6,0.3,2.2,1c0.6,0.6,0.9,1.4,0.9,2.3c0,0.9-0.3,1.7-0.9,2.3c-0.6,0.6-1.3,1-2.2,1
		c-0.9,0-1.6-0.3-2.2-1c-0.6-0.6-0.9-1.4-0.9-2.3c0-0.9,0.3-1.7,0.9-2.3S24.2,67.1,25.1,67.1z M23.7,68.9c-0.4,0.4-0.6,0.9-0.6,1.5
		c0,0.6,0.2,1.1,0.6,1.5s0.8,0.6,1.4,0.6s1-0.2,1.4-0.6s0.6-0.9,0.6-1.5c0-0.6-0.2-1-0.6-1.5s-0.8-0.6-1.4-0.6S24.1,68.5,23.7,68.9z
		"/>
	<path id="XMLID_11_" d="M30.6,64.3v9.2h-1.1v-9.2H30.6z"/>
	<path id="XMLID_13_" d="M34,72.2c0.2,0.2,0.5,0.3,1,0.3c0.5,0,1-0.2,1.4-0.6c0-0.1,0.1-0.2,0.3-0.4l1.1,0.4
		c-0.3,0.4-0.5,0.7-0.6,0.8c-0.6,0.6-1.3,1-2.2,1c-0.9,0-1.6-0.3-2.2-1c-0.6-0.6-0.9-1.4-0.9-2.3c0-0.9,0.3-1.7,0.9-2.3s1.3-1,2.2-1
		c0.7,0,1.4,0.2,1.9,0.7c0.1,0.1,0.2,0.2,0.3,0.3c0,0,0.1,0.2,0.3,0.4L37,69L34,72.2z M35.9,68.5c-0.1-0.1-0.4-0.2-0.9-0.2
		c-0.5,0-1,0.2-1.4,0.6c-0.4,0.4-0.6,0.9-0.6,1.5c0,0.5,0,0.8,0.1,0.9L35.9,68.5z"/>
	<path id="XMLID_16_" d="M47.9,68v-3.7H49v9.2h-1.1v-0.7c-0.5,0.6-1.2,0.9-1.9,0.9c-0.9,0-1.6-0.3-2.2-1c-0.6-0.6-0.9-1.4-0.9-2.3
		c0-0.9,0.3-1.7,0.9-2.3s1.3-1,2.2-1C46.7,67.1,47.3,67.4,47.9,68z M47.9,70.8v-0.9c-0.1-0.4-0.2-0.7-0.5-1
		c-0.4-0.4-0.8-0.6-1.4-0.6c-0.5,0-1,0.2-1.4,0.6c-0.4,0.4-0.6,0.9-0.6,1.5c0,0.6,0.2,1.1,0.6,1.5c0.4,0.4,0.8,0.6,1.4,0.6
		c0.5,0,1-0.2,1.4-0.6C47.6,71.5,47.8,71.2,47.9,70.8z"/>
	<path id="XMLID_19_" d="M50.8,65.6c-0.2-0.2-0.2-0.4-0.2-0.6c0-0.2,0.1-0.4,0.2-0.6c0.2-0.2,0.3-0.2,0.6-0.2c0.2,0,0.4,0.1,0.6,0.2
		c0.2,0.2,0.2,0.4,0.2,0.6c0,0.1,0,0.2-0.1,0.4l-0.6,1.3h-1L50.8,65.6z"/>
	<path id="XMLID_21_" d="M58.1,68v-0.4h1.1v5.9h-1.1v-0.7c-0.5,0.6-1.2,0.9-1.9,0.9c-0.9,0-1.6-0.3-2.2-1s-0.9-1.4-0.9-2.3
		c0-0.9,0.3-1.7,0.9-2.3s1.3-1,2.2-1C56.9,67.1,57.6,67.4,58.1,68z M58.1,70.8v-0.9c-0.1-0.4-0.2-0.7-0.5-1
		c-0.4-0.4-0.8-0.6-1.4-0.6c-0.5,0-1,0.2-1.4,0.6c-0.4,0.4-0.6,0.9-0.6,1.5c0,0.6,0.2,1,0.6,1.5c0.4,0.4,0.8,0.6,1.4,0.6
		c0.5,0,1-0.2,1.4-0.6C57.9,71.5,58.1,71.2,58.1,70.8z"/>
	<path id="XMLID_24_" d="M61.6,67.6v-2.2h1.1v2.2h1v1.2h-1v4.7h-1.1v-4.7h-1v-1.2H61.6z"/>
	<path id="XMLID_26_" d="M65.7,67.6v-2.2h1.1v2.2h1v1.2h-1v4.7h-1.1v-4.7h-1v-1.2H65.7z"/>
	<path id="XMLID_28_" d="M70.9,72.2c0.2,0.2,0.5,0.3,1,0.3c0.5,0,1-0.2,1.4-0.6c0-0.1,0.1-0.2,0.3-0.4l1.1,0.4
		c-0.3,0.4-0.5,0.7-0.6,0.8c-0.6,0.6-1.3,1-2.2,1c-0.9,0-1.6-0.3-2.2-1c-0.6-0.6-0.9-1.4-0.9-2.3c0-0.9,0.3-1.7,0.9-2.3s1.3-1,2.2-1
		c0.7,0,1.4,0.2,1.9,0.7c0.1,0.1,0.2,0.2,0.3,0.3c0,0,0.1,0.2,0.3,0.4L73.9,69L70.9,72.2z M72.8,68.5c-0.1-0.1-0.4-0.2-0.9-0.2
		c-0.5,0-1,0.2-1.4,0.6c-0.4,0.4-0.6,0.9-0.6,1.5c0,0.5,0,0.8,0.1,0.9L72.8,68.5z"/>
	<path id="XMLID_31_" d="M77.2,64.3v9.2h-1.1v-9.2H77.2z"/>
	<path id="XMLID_33_" d="M83.7,68v-0.4h1.1v5.9h-1.1v-0.7c-0.5,0.6-1.2,0.9-1.9,0.9c-0.9,0-1.6-0.3-2.2-1s-0.9-1.4-0.9-2.3
		c0-0.9,0.3-1.7,0.9-2.3s1.3-1,2.2-1C82.5,67.1,83.1,67.4,83.7,68z M83.7,70.8v-0.9c-0.1-0.4-0.2-0.7-0.5-1
		c-0.4-0.4-0.8-0.6-1.4-0.6c-0.5,0-1,0.2-1.4,0.6c-0.4,0.4-0.6,0.9-0.6,1.5c0,0.6,0.2,1,0.6,1.5c0.4,0.4,0.8,0.6,1.4,0.6
		c0.5,0,1-0.2,1.4-0.6C83.4,71.5,83.6,71.2,83.7,70.8z"/>
	<path id="XMLID_36_" d="M91.3,68v-0.4h1.1V72c0,1.2-0.3,2-0.9,2.7c-0.6,0.6-1.3,0.8-2.2,0.8c-0.9,0-1.6-0.3-2.2-0.8
		c-0.1-0.1-0.3-0.4-0.6-0.8l1.1-0.4c0.1,0.2,0.2,0.3,0.3,0.4c0.4,0.4,0.8,0.6,1.4,0.6c0.9,0,1.5-0.6,1.9-1.9c-0.4,0.7-1,1.1-1.8,1.1
		c-0.9,0-1.6-0.3-2.2-0.9c-0.6-0.6-0.9-1.4-0.9-2.3c0-0.9,0.3-1.7,0.9-2.3s1.3-1,2.2-1C90.1,67.1,90.8,67.4,91.3,68z M91.3,69.9
		c-0.1-0.4-0.2-0.7-0.5-1c-0.4-0.4-0.8-0.6-1.4-0.6c-0.5,0-1,0.2-1.4,0.6c-0.4,0.4-0.6,0.9-0.6,1.5c0,0.6,0.2,1.1,0.6,1.5
		c0.4,0.4,0.8,0.6,1.4,0.6c0.5,0,1-0.2,1.4-0.6c0.3-0.3,0.5-0.6,0.5-1V69.9z"/>
	<path id="XMLID_39_" d="M95.8,72.2c0.2,0.2,0.5,0.3,1,0.3c0.5,0,1-0.2,1.4-0.6c0-0.1,0.1-0.2,0.3-0.4l1.1,0.4
		c-0.3,0.4-0.5,0.7-0.6,0.8c-0.6,0.6-1.3,1-2.2,1c-0.9,0-1.6-0.3-2.2-1c-0.6-0.6-0.9-1.4-0.9-2.3c0-0.9,0.3-1.7,0.9-2.3s1.3-1,2.2-1
		c0.7,0,1.4,0.2,1.9,0.7c0.1,0.1,0.2,0.2,0.3,0.3c0,0,0.1,0.2,0.3,0.4L98.8,69L95.8,72.2z M97.7,68.5c-0.1-0.1-0.4-0.2-0.9-0.2
		c-0.5,0-1,0.2-1.4,0.6c-0.4,0.4-0.6,0.9-0.6,1.5c0,0.5,0,0.8,0.1,0.9L97.7,68.5z"/>
	<path id="XMLID_42_" d="M107.9,64.3l3.2,9.2h-1.2l-1.1-3.3h-2.3l-1.1,3.3h-1.2l3.2-9.2H107.9z M108.4,69l-0.7-2.2l-0.7,2.2H108.4z"
		/>
	<path id="XMLID_45_" d="M113,64.3c1.4,0,2.5,0.4,3.3,1.3c0.9,0.9,1.3,2,1.3,3.3c0,1.3-0.4,2.4-1.3,3.3c-0.8,0.8-1.9,1.3-3.3,1.3
		h-0.8v-9.2H113z M113.3,65.5v6.8c0.9,0,1.6-0.3,2.2-0.9c0.6-0.7,1-1.5,1-2.5c0-1-0.3-1.8-1-2.5C115,65.8,114.2,65.5,113.3,65.5z"/>
	<path id="XMLID_48_" d="M121.2,70.5h-1v3H119v-9.2h2.5c0.7,0.1,1.3,0.4,1.8,0.9c0.6,0.6,0.9,1.4,0.9,2.2c0,0.9-0.3,1.6-0.9,2.2
		c-0.4,0.4-0.7,0.7-0.9,0.7l1.9,3.2h-1.4L121.2,70.5z M120.1,65.5v3.9h1c0.5,0,0.9-0.2,1.3-0.6c0.4-0.4,0.5-0.8,0.5-1.4
		c0-0.5-0.2-1-0.5-1.4c-0.4-0.4-0.8-0.6-1.3-0.6H120.1z"/>
	<path id="XMLID_51_" d="M126.6,64.3v9.2h-1.1v-9.2H126.6z"/>
	<path id="XMLID_53_" d="M133.1,64.3v1.2h-3.6v2.8h3.6v1.2h-3.6v2.8h3.6v1.2h-4.7v-9.2H133.1z"/>
	<path id="XMLID_55_" d="M134.6,64.3h1l3.6,6.6v-6.6h1.1v9.2h-1l-3.6-6.7v6.7h-1.1V64.3z"/>
	<path id="XMLID_57_" d="M150,64.3v1.2h-3.1v2.8h3.1v1.2h-3.1v4h-1.1v-9.2H150z"/>
	<path id="XMLID_59_" d="M159,65.5c0.9,0.9,1.3,2,1.3,3.3c0,1.3-0.4,2.4-1.3,3.3s-1.9,1.4-3.2,1.4c-1.2,0-2.3-0.5-3.2-1.4
		s-1.3-2-1.3-3.3c0-1.3,0.4-2.4,1.3-3.3s1.9-1.4,3.2-1.4C157.1,64.2,158.1,64.6,159,65.5z M155.8,65.4c-0.9,0-1.7,0.3-2.3,1
		c-0.6,0.7-1,1.5-1,2.5s0.3,1.8,1,2.5c0.7,0.7,1.4,1,2.3,1c0.9,0,1.7-0.3,2.3-1c0.6-0.7,1-1.5,1-2.5s-0.3-1.8-1-2.5
		C157.5,65.7,156.7,65.4,155.8,65.4z"/>
	<path id="XMLID_62_" d="M166.6,64.3h1.1v6.5c-0.1,0.7-0.4,1.4-0.9,1.9c-0.6,0.6-1.3,0.9-2.1,0.9c-0.8,0-1.5-0.3-2.1-0.9
		s-0.9-1.4-0.9-2.2v-6.2h1.1v6.2c0,0.5,0.2,1,0.5,1.4c0.4,0.4,0.8,0.6,1.3,0.6c0.5,0,0.9-0.2,1.3-0.6c0.4-0.4,0.5-0.8,0.5-1.4V64.3z
		"/>
	<path id="XMLID_64_" d="M169.3,73.5v-9.2h1.1v8h3.1v1.2H169.3z"/>
	<path id="XMLID_66_" d="M182,65.5c0.9,0.9,1.3,2,1.3,3.3c0,1.3-0.4,2.4-1.3,3.3s-1.9,1.4-3.2,1.4c-1.2,0-2.3-0.5-3.2-1.4
		s-1.3-2-1.3-3.3c0-1.3,0.4-2.4,1.3-3.3s1.9-1.4,3.2-1.4C180,64.2,181.1,64.6,182,65.5z M178.8,65.4c-0.9,0-1.7,0.3-2.3,1
		c-0.6,0.7-1,1.5-1,2.5s0.3,1.8,1,2.5c0.7,0.7,1.4,1,2.3,1c0.9,0,1.7-0.3,2.3-1c0.6-0.7,1-1.5,1-2.5s-0.3-1.8-1-2.5
		C180.5,65.7,179.7,65.4,178.8,65.4z"/>
	<path id="XMLID_69_" d="M184.8,64.3h1l3.6,6.6v-6.6h1.1v9.2h-1l-3.6-6.7v6.7h-1.1V64.3z"/>
</g>
</svg>
