<?xml version="1.0" encoding="utf-8"?>
<!-- Generator: Adobe Illustrator 19.0.0, SVG Export Plug-In . SVG Version: 6.00 Build 0)  -->
<svg version="1.1" id="Calque_1" xmlns="http://www.w3.org/2000/svg" xmlns:xlink="http://www.w3.org/1999/xlink" x="0px" y="0px"
	 viewBox="0 0 200 200" style="enable-background:new 0 0 200 200;" xml:space="preserve">
<style type="text/css">
	.st0{fill:#617046;}
	.st1{fill:#474F32;}
	.st2{fill:url(#XMLID_4_);}
	.st3{fill:#608E3E;}
	.st4{fill:url(#XMLID_5_);}
	.st5{fill:#8CAE66;}
	.st6{fill:url(#XMLID_11_);}
	.st7{fill:url(#XMLID_14_);}
	.st8{fill:url(#XMLID_17_);}
	.st9{fill:url(#XMLID_19_);}
	.st10{fill:#293519;}
	.st11{fill:#2D3A19;}
	.st12{fill:#B9C892;}
	.st13{opacity:0.35;}
	.st14{fill:#425030;}
</style>
<g id="XMLID_42_">
	<path id="XMLID_43_" class="st0" d="M103.8,146.4c-3.3-1.6-5.9-3.8-7.9-6.5c-1.9-2.7-3.3-6.1-4.2-10.1c-0.8-3.5-1.3-7.6-1.5-12.2
		c-0.2-4.6-0.3-11.1-0.3-19.6c0-10.6,0.2-18.7,0.7-24.3c0.5-5.6,1.6-10.4,3.4-14.2c2-4.1,5.1-7.3,9.2-9.5c4.1-2.2,10-3.7,17.5-4.5
		v52.5c0,5.9,0.1,11.6,0.3,17.1c0.2,4.1,0.7,7.1,1.6,9.1c0.9,1.9,2.3,3,4.3,3.3c1.7,0.4,4.6,0.6,8.6,0.6c4.1,0,6.9-0.2,8.5-0.5v23.4
		c-0.9,0.1-2.3,0.2-4.1,0.2h-4.4C120.8,151.3,110.3,149.6,103.8,146.4z M150.3,98.1c0-8.8-0.1-14.5-0.2-17.2c-0.2-4.1-0.8-7.1-1.7-9
		c-0.9-1.9-2.4-3-4.4-3.4c-2-0.3-4.9-0.5-8.6-0.5c-4.3,0-7.1,0.2-8.5,0.6V45.1c0.9-0.1,2.3-0.2,4.1-0.2h4.4c11.3,0,20,0.9,26.2,2.6
		c6.2,1.8,10.7,4.7,13.5,8.7c2.6,3.7,4.3,8.6,4.9,14.6c0.7,6,1,15.1,1,27.2c0,10.6-0.2,18.7-0.7,24.4c-0.5,5.7-1.6,10.4-3.4,14.1
		c-2,4.2-5.1,7.5-9.3,9.7c-4.2,2.2-10,3.7-17.4,4.4V98.1z"/>
	<path id="XMLID_41_" class="st1" d="M144,127.7c0,0-13.3,8.1-23.2,5.1v5.9c0,0,8.6,8.6,8.2,12.5l-6.6-0.4l-6-11.1l-2.5-11.5
		l9.8-1.5L144,127.7z"/>
	<path id="XMLID_40_" class="st1" d="M149.5,74.8c0,0,15.6-1.8,13,24.4c-0.4,4.4-1.8,8.6-4,12.4l-8.1,13.9L149.5,74.8z"/>
	<g id="XMLID_7_">
		
			<linearGradient id="XMLID_4_" gradientUnits="userSpaceOnUse" x1="239.0498" y1="64.4609" x2="235.821" y2="97.5552" gradientTransform="matrix(0.9462 0.3237 -0.3237 0.9462 -90.6862 1.8108)">
			<stop  offset="0" style="stop-color:#608E3E"/>
			<stop  offset="1" style="stop-color:#294C18"/>
		</linearGradient>
		<path id="XMLID_16_" class="st2" d="M101.9,131.1c0,0,21.3,16.1,18.9,20.6c-1.6,3,1.6,2.5,3.9,1.9c1.1-0.3,1.6-1.5,1.1-2.5
			c-1.7-3.4-5.5-10.6-7.6-12.6C118.2,138.6,106.2,132.4,101.9,131.1z"/>
		<path id="XMLID_15_" class="st3" d="M18.9,67.4c0,0,93.7,9.1,99.3,71.2C118.2,138.6,62.2,117.4,18.9,67.4z"/>
		
			<linearGradient id="XMLID_5_" gradientUnits="userSpaceOnUse" x1="356.0416" y1="-165.8797" x2="351.8299" y2="-122.71" gradientTransform="matrix(0.8128 0.5826 -0.5826 0.8128 -314.3692 26.8334)">
			<stop  offset="0" style="stop-color:#608E3E"/>
			<stop  offset="1" style="stop-color:#294C18"/>
		</linearGradient>
		<path id="XMLID_13_" class="st4" d="M118.2,138.6c0,0-56-21.2-99.3-71.2c0,0,0,0,0,0C20.1,67.8,75,86.3,118.2,138.6z"/>
		<path id="XMLID_12_" class="st5" d="M111.9,135.9c-70.3-66.5-93-68.5-93-68.5c29.6,5,99.3,71.2,99.3,71.2L111.9,135.9z"/>
		
			<linearGradient id="XMLID_11_" gradientUnits="userSpaceOnUse" x1="272.0307" y1="-146.2094" x2="345.9364" y2="-178.3775" gradientTransform="matrix(0.8128 0.5826 -0.5826 0.8128 -314.3692 26.8334)">
			<stop  offset="0.3614" style="stop-color:#8CAE66"/>
			<stop  offset="1" style="stop-color:#608E3E"/>
		</linearGradient>
		<path id="XMLID_10_" class="st6" d="M46.2,73.5c0,0-1.7,4.9,6.8,11.6c0,0-17.1-13.4-34.1-17.7C19,67.4,41.7,70.8,46.2,73.5z"/>
		
			<linearGradient id="XMLID_14_" gradientUnits="userSpaceOnUse" x1="336.7426" y1="-175.6974" x2="451.5991" y2="-165.8354" gradientTransform="matrix(0.8128 0.5826 -0.5826 0.8128 -314.3692 26.8334)">
			<stop  offset="0" style="stop-color:#608E3E"/>
			<stop  offset="1" style="stop-color:#294C18"/>
		</linearGradient>
		<path id="XMLID_9_" class="st7" d="M118.2,138.6c0,0-1.3-24.1-24-42.8c0,0-10.2-9.2-31.9-17.7l-11.5,5.1c0,0,26.5,18.9,34.6,26.4
			S118.2,138.6,118.2,138.6z"/>
		<path id="XMLID_8_" class="st5" d="M118.2,138.6c-10.5-50.4-65.7-64.1-77.8-66.4C28.6,68.8,20,67.5,19,67.4
			C22.7,67.8,112.7,77.8,118.2,138.6z"/>
		<path id="XMLID_6_" class="st5" d="M111.9,135.9c0,0,8.9,7,11.2,10.1c0,0-3-5.6-4.9-7.5S111.9,135.9,111.9,135.9z"/>
		
			<linearGradient id="XMLID_17_" gradientUnits="userSpaceOnUse" x1="240.1974" y1="62.3901" x2="237.5558" y2="69.0935" gradientTransform="matrix(0.9462 0.3237 -0.3237 0.9462 -90.6862 1.8108)">
			<stop  offset="0" style="stop-color:#608E3E"/>
			<stop  offset="1" style="stop-color:#294C18"/>
		</linearGradient>
		<path id="XMLID_18_" class="st8" d="M101.9,131.1l4.7,2.2c0,0,20.1,17.1,17.8,20.3c0,0-5,1.5-3.9-1.3
			C121.5,149.5,101.9,131.1,101.9,131.1z"/>
	</g>
	<g id="XMLID_31_">
		
			<linearGradient id="XMLID_19_" gradientUnits="userSpaceOnUse" x1="463.6783" y1="-14.9948" x2="464.6582" y2="46.7418" gradientTransform="matrix(0.7199 0.6941 -0.6941 0.7199 -195.5505 -223.0304)">
			<stop  offset="0" style="stop-color:#608E3E"/>
			<stop  offset="1" style="stop-color:#294C18"/>
		</linearGradient>
		<path id="XMLID_27_" class="st9" d="M148,120.9c-9.5,9.9-24.1,12-33.3,9.2c-2.5-0.7-2.5,0.1-4.4-1.7c-1.6-1.6-0.8-2.6-1.7-4.6
			c-3.7-9.1-2-23.1,7.8-33.2c12.1-12.5,36.4-21.9,40.6-10.5C161.2,91.5,160,108.3,148,120.9z"/>
		
			<ellipse id="XMLID_29_" transform="matrix(0.381 0.9246 -0.9246 0.381 171.4972 -93.3074)" class="st10" cx="155.4" cy="81.4" rx="4.7" ry="0.9"/>
		
			<ellipse id="XMLID_28_" transform="matrix(0.3573 0.934 -0.934 0.3573 176.0368 -92.8307)" class="st11" cx="155.5" cy="81.5" rx="4.1" ry="0.7"/>
		<path id="XMLID_30_" class="st12" d="M141.7,76.4c0,0,7.6-1.6,9.5-0.2c0,0,1.3,6.4,3.8,8.9c0,0-5.7-6-5.6-7.6
			S141.7,76.4,141.7,76.4z"/>
	</g>
	<g id="XMLID_39_" class="st13">
		<path id="XMLID_32_" class="st14" d="M102.9,106.9l0.9-1.9l3.3,4.2c0,0,0.6-3.5,1.1-5c0.5-1.5,15.4,26.9,24.7,25.1
			c0,0-8.5,2.9-16.1,1.3c0,0,1.2,7.9,1.2,7.9s-13.1-11.4-13.1-11.4S96.3,117.7,102.9,106.9z"/>
		<path id="XMLID_38_" class="st14" d="M126,82.7c0,0-24.4,13-18.1,38.7L128,128C128,128,110.8,96.8,126,82.7z"/>
	</g>
</g>
</svg>
