<?xml version="1.0" encoding="utf-8"?>
<!-- Generator: Adobe Illustrator 19.0.0, SVG Export Plug-In . SVG Version: 6.00 Build 0)  -->
<svg version="1.1" id="Calque_1" xmlns="http://www.w3.org/2000/svg" xmlns:xlink="http://www.w3.org/1999/xlink" x="0px" y="0px"
	 viewBox="0 0 200 200" style="enable-background:new 0 0 200 200;" xml:space="preserve">
<style type="text/css">
	.st0{opacity:0.1;}
	.st1{fill:#E8E8E8;}
	.st2{font-family:'NovaFlat';}
	.st3{font-size:23.0807px;}
	.st4{letter-spacing:-1;}
</style>
<g id="XMLID_28_">
	<g id="XMLID_23_">
		<g id="XMLID_21_">
			<g id="XMLID_6_">
				<path id="XMLID_8_" d="M74.1,102.3l-9.9-28.6l3.6-1.6H68l8,23.7l7.6-23.7h0.2l3.4,1.6l-9.3,27l-3.5,1.6H74.1z"/>
				<path id="XMLID_11_" d="M89,102.3V73.9l3.7-1.7h0.2v28.4l-3.7,1.7H89z"/>
				<path id="XMLID_14_" d="M98.7,102.3V78.8c0-2.3,1.5-4.1,4.4-5.2c1.6-0.7,3.5-1,5.4-1c2,0,3.8,0.3,5.4,1c2.9,1.2,4.4,2.9,4.4,5.2
					v59.5l-3.7,1.7h-0.2V78.8c0-0.9-0.8-1.6-2.4-2.2c-1.1-0.4-2.3-0.6-3.6-0.6s-2.5,0.2-3.6,0.6c-1.6,0.6-2.4,1.3-2.4,2.2v21.8
					l-3.7,1.7H98.7z"/>
				<path id="XMLID_17_" d="M130.1,102.4v-10c-1.2-0.2-2.4-0.4-3.5-0.9c-2.9-1.2-4.4-2.9-4.4-5.2V73.9l3.7-1.7h0.2v14.1
					c0,0.9,0.8,1.6,2.4,2.2c1.1,0.4,2.3,0.6,3.6,0.6c1.3,0,2.5-0.2,3.6-0.6c1.6-0.6,2.4-1.3,2.4-2.2V73.9l3.7-1.7h0.2v14.1
					c0,2.3-1.5,4-4.4,5.2c-1.1,0.4-2.2,0.7-3.5,0.9v8.3l-3.7,1.7H130.1z"/>
				<path id="XMLID_19_" d="M145.8,101.6V73.9l3.7-1.7h0.2v25.9H163v0.2l-1.6,3.3H145.8z"/>
			</g>
			<polygon id="XMLID_7_" points="118,138.3 103.2,145.3 97.7,139.1 101.2,139.5 118,133.1 			"/>
		</g>
		<path id="XMLID_27_" class="st0" d="M168.8,99.6c0,25.6-15.4,47.9-37.4,57.6c-9.7-2.2-18.4-7.3-25.4-13.3h0.1
			c24.2,0,43.9-19.9,43.9-44.1c0-21.7-15.8-39.9-36.6-43.4c7.9-5.2,17.3-8.5,27.3-9.1C157.6,58.7,168.8,77.8,168.8,99.6z"/>
		<path id="XMLID_32_" d="M52.2,100.1c0-27,21.9-48.9,48.9-48.9c2.8,0,5.5,0.2,8.1,0.7c8.8-5.8,19.3-9.4,30.5-10
			c-11.1-7.3-24.3-11.6-38.6-11.6c-38.6,0-69.9,31.3-69.9,69.9S62.5,170,101.1,170c10,0,19.5-2.1,28.1-5.9
			c-10.8-2.5-20.5-7.8-28.3-15.1C74,148.9,52.2,127.1,52.2,100.1z"/>
		<path id="XMLID_22_" class="st1" d="M109.8,33.1c0,0-16.3-6.5-41.8,7.9c0,0,21.9-13,42-6.9c0,0-18.6-3-31,3.2
			c0,0,12.1-5.8,31.2-2.3C129.3,38.5,109.8,33.1,109.8,33.1z"/>
		<path id="XMLID_24_" class="st1" d="M108,36.6c0,0-12.6-5.1-32.3,6.1c0,0,16.9-10.1,32.5-5.4c0,0-14.4-2.3-24,2.5
			c0,0,9.3-4.5,24.1-1.8S108,36.6,108,36.6z"/>
	</g>
	<text id="XMLID_26_" transform="matrix(1 0 0 1 150.2088 95.8553)" class="st2 st3 st4">e</text>
</g>
</svg>
