<?xml version="1.0" encoding="UTF-8" standalone="no"?><!DOCTYPE svg PUBLIC "-//W3C//DTD SVG 1.1//EN" "http://www.w3.org/Graphics/SVG/1.1/DTD/svg11.dtd"><svg width="100%" height="100%" viewBox="0 0 1280 800" version="1.1" xmlns="http://www.w3.org/2000/svg" xmlns:xlink="http://www.w3.org/1999/xlink" xml:space="preserve" xmlns:serif="http://www.serif.com/" style="fill-rule:evenodd;clip-rule:evenodd;stroke-linejoin:round;stroke-miterlimit:2;"><g transform="matrix(0.995156,-0.098308,0.098308,0.995156,93.4965,-515.565)"><text x="26.246px" y="695.355px" style="font-family:'InkFree', 'Ink Free', cursive;font-size:116.666px;">télechargez mon</text></g><text x="318.576px" y="298.557px" style="font-family:'InkFree', 'Ink Free', cursive;font-size:116.666px;">PORTFOLIO</text><g transform="matrix(0.99695,0.0780492,-0.0780492,0.99695,-95.925,143.649)"><text x="253.751px" y="257.443px" style="font-family:'InkFree', 'Ink Free', cursive;font-size:132.761px;">en cliquant ici</text></g><path d="M1045.13,407.217l0.105,0.018l0.221,0.036l0.446,0.073l0.563,0.094l0.677,0.115l0.787,0.136l0.893,0.158l0.487,0.087l0.512,0.092l0.537,0.098l0.561,0.103l0.586,0.108l0.61,0.114l0.633,0.12l0.656,0.125l0.679,0.13l0.701,0.136l0.723,0.142l0.744,0.147l0.765,0.152l0.786,0.158l0.806,0.164l0.826,0.169l0.845,0.175l0.864,0.181l0.882,0.187l0.9,0.192l0.919,0.197l0.935,0.204l0.952,0.209l0.969,0.215l0.984,0.221l0.38,0.086l0.622,0.133l1.017,0.219l1.033,0.226l1.047,0.231l1.061,0.237l1.074,0.242l1.088,0.249l1.1,0.254l1.113,0.259l1.124,0.266l0.567,0.135l0.57,0.136l0.572,0.138l0.575,0.14l0.578,0.141l0.581,0.142l0.583,0.144l0.585,0.145l0.588,0.147l0.59,0.148l0.593,0.149l0.595,0.152l0.597,0.152l0.6,0.154l0.602,0.156l0.221,0.058l0.383,0.094l0.608,0.152l0.609,0.153l0.612,0.154l0.613,0.156l0.615,0.157l0.617,0.159l0.619,0.16l0.621,0.162l0.622,0.164l0.624,0.164l0.625,0.167l0.627,0.168l0.629,0.169l0.63,0.171l0.631,0.172l0.189,0.052l0.445,0.117l0.635,0.167l0.637,0.17l0.638,0.171l0.639,0.172l0.641,0.174l0.641,0.175l0.642,0.177l0.644,0.179l0.644,0.18l0.645,0.181l0.645,0.183l0.647,0.185l0.647,0.186l0.618,0.18l0.03,0.008l0.65,0.183l0.65,0.185l0.651,0.186l0.652,0.188l0.652,0.19l0.652,0.191l0.653,0.193l0.652,0.194l0.653,0.196l0.653,0.198l0.654,0.199l0.653,0.201l0.653,0.202l0.653,0.204l0.653,0.206l0.653,0.207l0.653,0.209l0.652,0.211l0.652,0.212l0.652,0.214l0.651,0.216l0.651,0.217l0.65,0.22l0.65,0.22l0.649,0.223l0.649,0.224l0.647,0.226l0.647,0.227l0.646,0.229l0.646,0.231l0.644,0.233l0.643,0.234l0.643,0.236l0.641,0.238l0.64,0.24l0.639,0.241l0.637,0.243l0.637,0.245l0.098,0.038l0.537,0.208l0.634,0.247l0.633,0.249l0.631,0.25l0.63,0.253l0.628,0.254l0.627,0.256l0.624,0.258l0.623,0.259l0.622,0.262l0.619,0.263l0.618,0.265l0.615,0.267l0.614,0.269l0.612,0.27l0.609,0.273l0.608,0.274l0.605,0.276l0.603,0.278l0.601,0.28l0.598,0.282l0.596,0.284l0.593,0.285l0.591,0.288l0.589,0.289l0.586,0.291l0.583,0.294l0.581,0.295l0.577,0.297l0.575,0.298l0.287,0.151l0.286,0.151l0.285,0.151l0.284,0.152l0.283,0.152l0.283,0.153l0.282,0.153l0.282,0.153l0.28,0.154l0.28,0.155l0.279,0.155l0.278,0.156l0.277,0.156l0.277,0.157l0.276,0.157l0.275,0.157l0.274,0.158l0.274,0.159l0.272,0.159l0.272,0.16l0.271,0.16l0.27,0.16l0.269,0.162l0.268,0.161l0.268,0.162l0.266,0.163l0.266,0.163l0.265,0.164l0.264,0.164l0.263,0.165l0.262,0.165l0.261,0.165l0.261,0.167l0.259,0.166l0.259,0.168l0.257,0.167l0.257,0.169l0.256,0.168l0.254,0.17l0.254,0.17l0.253,0.17l0.252,0.171l0.251,0.171l0.228,0.158l0.022,0.014l0.249,0.172l0.248,0.173l0.247,0.173l0.246,0.174l0.245,0.174l0.244,0.175l0.243,0.175l0.242,0.176l0.241,0.176l0.24,0.177l0.239,0.178l0.238,0.178l0.236,0.178l0.236,0.179l0.235,0.18l0.233,0.18l0.233,0.181l0.231,0.181l0.23,0.182l0.229,0.182l0.228,0.183l0.227,0.184l0.226,0.184l0.224,0.184l0.224,0.185l0.222,0.186l0.221,0.186l0.22,0.187l0.219,0.187l0.217,0.188l0.217,0.189l0.215,0.189l0.214,0.189l0.213,0.191l0.212,0.19l0.21,0.192l0.209,0.191l0.208,0.193l0.207,0.193l0.205,0.193l0.205,0.195l0.202,0.194l0.202,0.196l0.201,0.195l0.199,0.197l0.198,0.197l0.196,0.197l0.195,0.199l0.194,0.198l0.193,0.2l0.191,0.2l0.19,0.2l0.189,0.201l0.187,0.202l0.186,0.202l0.185,0.203l0.183,0.203l0.182,0.205l0.181,0.204l0.179,0.205l0.178,0.206l0.176,0.207l0.175,0.207l0.174,0.207l0.172,0.209l0.17,0.208l0.17,0.21l0.167,0.21l0.167,0.21l0.165,0.212l0.163,0.212l0.162,0.212l0.161,0.213l0.159,0.214l0.157,0.214l0.156,0.215l0.155,0.216l0.153,0.216l0.151,0.216l0.15,0.218l0.149,0.218l0.147,0.218l0.145,0.22l0.144,0.219l0.142,0.221l0.141,0.221l0.139,0.222l0.137,0.222l0.136,0.223l0.135,0.223l0.132,0.225l0.131,0.224l0.13,0.226l0.127,0.226l0.127,0.226l0.124,0.228l0.123,0.228l0.121,0.228l0.12,0.229l0.117,0.23l0.117,0.231l0.114,0.231l0.113,0.231l0.111,0.233l0.109,0.233l0.108,0.233l0.105,0.234l0.104,0.235l0.103,0.236l0.1,0.236l0.099,0.236l0.097,0.238l0.095,0.238l0.094,0.238l0.092,0.239l0.089,0.24l0.088,0.241l0.087,0.241l0.084,0.241l0.082,0.243l0.081,0.242l0.079,0.244l0.077,0.244l0.075,0.245l0.073,0.245l0.072,0.246l0.069,0.247l0.068,0.247l0.065,0.248l0.064,0.248l0.062,0.249l0.06,0.25l0.058,0.25l0.056,0.251l0.054,0.252l0.052,0.252l0.05,0.253l0.048,0.253l0.046,0.254l0.044,0.254l0.043,0.255l0.04,0.256l0.038,0.256l0.036,0.257l0.034,0.258l0.033,0.258l0.03,0.258l0.028,0.259l0.026,0.26l0.025,0.26l0.022,0.261l0.02,0.262l0.018,0.262l0.016,0.263l0.014,0.263l0.011,0.264l0.01,0.264l0.008,0.265l0.005,0.266l0.003,0.266l0.002,0.267l-0.001,0.267l-0.003,0.268l-0.006,0.268l-0.007,0.269l-0.01,0.27l-0.011,0.27l-0.014,0.27l-0.016,0.272l-0.018,0.271l-0.021,0.273l-0.022,0.273l-0.025,0.273l-0.027,0.274l-0.029,0.274l-0.031,0.276l-0.034,0.275l-0.036,0.276l-0.038,0.277l-0.04,0.277l-0.042,0.278l-0.045,0.279l-0.047,0.278l-0.049,0.28l-0.051,0.28l-0.054,0.28l-0.056,0.281l-0.058,0.282l-0.061,0.282l-0.063,0.283l-0.065,0.283l-0.067,0.284l-0.07,0.284l-0.072,0.285l-0.074,0.285l-0.077,0.286l-0.079,0.287l-0.081,0.287l-0.083,0.287l-0.086,0.288l-0.088,0.289l-0.091,0.289l-0.093,0.29l-0.095,0.29l-0.098,0.291l-0.1,0.291l-0.102,0.292l-0.105,0.292l-0.107,0.293l-0.109,0.294l-0.112,0.294l-0.114,0.294l-0.117,0.295l-0.119,0.296l-0.122,0.296l-0.123,0.297l-0.127,0.297l-0.128,0.298l-0.131,0.298l-0.134,0.299l-0.136,0.299l-0.139,0.3l-0.14,0.301l-0.144,0.301l-0.146,0.302l-0.148,0.302l-0.151,0.303l-0.153,0.303l-0.156,0.304l-0.158,0.304l-0.16,0.305l-0.164,0.306l-0.165,0.306l-0.169,0.306l-0.17,0.307l-0.174,0.308l-0.175,0.308l-0.179,0.309l-0.18,0.31l-0.184,0.31l-0.186,0.31l-0.188,0.311l-0.191,0.312l-0.194,0.312l-0.196,0.313l-0.199,0.314l-0.201,0.314l-0.204,0.314l-0.207,0.315l-0.209,0.316l-0.211,0.316l-0.215,0.317l-0.217,0.318l-0.219,0.318l-0.223,0.318l-0.224,0.32l-0.228,0.319l-0.23,0.321l-0.233,0.321l-0.235,0.321l-0.238,0.322l-0.241,0.323l-0.244,0.324l-0.246,0.323l-0.249,0.325l-0.251,0.325l-0.254,0.326l-0.257,0.326l-0.26,0.327l-0.262,0.327l-0.266,0.329l-0.267,0.328l-0.271,0.33l-0.273,0.33l-0.217,0.259l-0.059,0.071l-0.279,0.332l-0.281,0.332l-0.284,0.332l-0.287,0.333l-0.289,0.334l-0.293,0.335l-0.295,0.335l-0.298,0.336l-0.301,0.336l-0.303,0.337l-0.307,0.338l-0.309,0.338l-0.312,0.339l-0.315,0.339l-0.318,0.34l-0.32,0.341l-0.324,0.341l-0.326,0.342l-0.329,0.343l-0.332,0.343l-0.335,0.344l-0.338,0.345l-0.341,0.345l-0.344,0.346l-0.346,0.346l-0.35,0.347l-0.352,0.348l-0.355,0.348l-0.359,0.349l-0.361,0.35l-0.364,0.35l-0.367,0.351l-0.37,0.352l-0.373,0.352l-0.376,0.353l-0.379,0.354l-0.382,0.354l-0.385,0.355l-0.388,0.355l-0.391,0.356l-0.394,0.357l-0.397,0.357l-0.4,0.358l-0.403,0.359l-0.406,0.36l-0.409,0.36l-0.412,0.36l-0.415,0.362l-0.419,0.362l-0.421,0.363l-0.425,0.363l-0.427,0.364l-0.431,0.365l-0.433,0.365l-0.437,0.366l-0.44,0.367l-0.443,0.367l-0.446,0.368l-0.45,0.369l-0.452,0.369l-0.455,0.371l-0.459,0.37l-0.462,0.372l-0.465,0.372l-0.468,0.373l-0.472,0.373l-0.474,0.374l-0.478,0.375l-0.481,0.375l-0.484,0.377l-0.487,0.376l-0.491,0.378l-0.493,0.378l-0.497,0.379l-0.5,0.38l-0.504,0.38l-0.507,0.381l-0.482,0.361l-0.027,0.02l-0.513,0.383l-0.516,0.384l-0.519,0.384l-0.523,0.385l-0.526,0.386l-0.529,0.387l-0.532,0.387l-0.536,0.388l-0.539,0.388l-0.542,0.389l-0.546,0.39l-0.549,0.391l-0.552,0.391l-0.555,0.392l-0.559,0.393l-0.563,0.393l-0.565,0.395l-0.57,0.394l-0.572,0.396l-0.576,0.396l-0.579,0.397l-0.583,0.398l-0.586,0.398l-0.589,0.399l-0.593,0.4l-0.596,0.401l-0.6,0.401l-0.603,0.402l-0.606,0.403l-0.61,0.403l-0.614,0.404l-0.616,0.405l-0.621,0.406l-0.624,0.406l-0.627,0.407l-0.631,0.407l-0.634,0.409l-0.638,0.409l-0.641,0.41l-0.645,0.41l-0.648,0.412l-0.652,0.412l-0.655,0.413l-0.659,0.413l-0.662,0.414l-0.666,0.415l-0.67,0.416l-0.673,0.416l-0.677,0.417l-0.68,0.418l-0.684,0.419l-0.687,0.419l-0.691,0.42l-0.628,0.381l-0.067,0.04l-0.697,0.423l-0.701,0.423l-0.705,0.424l-0.708,0.425l-0.712,0.426l-0.716,0.426l-0.719,0.428l-0.723,0.428l-0.726,0.428l-0.73,0.43l-0.734,0.43l-0.738,0.431l-0.741,0.431l-0.745,0.433l-0.749,0.433l-0.752,0.434l-0.756,0.434l-0.76,0.436l-0.763,0.436l-0.767,0.437l-0.771,0.438l-0.775,0.438l-0.779,0.439l-0.782,0.44l-0.786,0.441l-0.789,0.441l-0.794,0.443l-0.797,0.443l-0.801,0.443l-0.805,0.445l-0.809,0.445l-0.812,0.446l-0.817,0.447l-0.82,0.447l-0.824,0.449l-0.827,0.449l-0.832,0.45l-0.835,0.45l-0.773,0.416l-0.067,0.036l-0.841,0.454l-0.846,0.456l-0.85,0.456l-0.853,0.457l-0.857,0.457l-0.862,0.459l-0.865,0.459l-0.869,0.46l-0.873,0.461l-0.877,0.462l-0.88,0.462l-0.885,0.464l-0.889,0.464l-0.892,0.464l-0.897,0.466l-0.9,0.466l-0.905,0.467l-0.908,0.468l-0.913,0.469l-0.916,0.47l-0.92,0.47l-0.925,0.471l-0.928,0.472l-0.933,0.473l-0.936,0.473l-0.94,0.475l-0.945,0.475l-0.214,0.107l-0.731,0.376l-0.948,0.485l-0.952,0.487l-0.956,0.487l-0.96,0.488l-0.965,0.489l-0.968,0.49l-0.973,0.491l-0.976,0.491l-0.981,0.492l-0.985,0.494l-0.989,0.494l-0.992,0.495l-0.998,0.495l-0.067,0.034l-0.929,0.473l-1,0.508l-1.004,0.51l-1.009,0.51l-1.012,0.511l-1.017,0.512l-1.021,0.512l-1.025,0.514l-1.029,0.515l-1.034,0.515l-1.038,0.517l-1.041,0.517l-1.046,0.518l-0.679,0.336l-0.37,0.188l-1.049,0.531l-1.053,0.532l-1.058,0.534l-1.062,0.534l-1.066,0.535l-1.071,0.536l-1.074,0.537l-1.079,0.538l-1.083,0.539l-1.088,0.54l-1.091,0.541l-1.096,0.542l-1.101,0.543l-1.104,0.544l-1.109,0.545l-1.113,0.546l-1.118,0.547l-1.122,0.547l-1.126,0.549l-1.13,0.55l-1.135,0.551l-1.139,0.551l-1.144,0.553l-0.811,0.391l-0.335,0.166l-1.147,0.567l-1.151,0.569l-1.155,0.569l-1.16,0.57l-1.164,0.572l-1.169,0.572l-1.173,0.573l-1.178,0.575l-1.181,0.575l-1.187,0.577l-1.191,0.577l-1.195,0.579l-1.199,0.579l-1.204,0.581l-1.209,0.582l-1.213,0.582l-1.217,0.584l-1.222,0.585l-1.226,0.586l-1.231,0.586l-1.236,0.588l-1.24,0.589l-0.875,0.416l-0.366,0.177l-3.395,-8.095l0.382,-0.137l0.908,-0.333l1.282,-0.471l1.279,-0.47l1.273,-0.47l1.269,-0.469l1.265,-0.469l1.26,-0.468l1.256,-0.467l1.251,-0.467l1.247,-0.466l1.242,-0.466l1.238,-0.465l1.234,-0.464l1.228,-0.464l1.225,-0.463l1.22,-0.463l1.216,-0.462l1.211,-0.461l1.207,-0.461l1.202,-0.46l1.198,-0.46l1.194,-0.459l1.189,-0.458l0.348,-0.134l0.833,-0.333l1.175,-0.469l1.171,-0.469l1.166,-0.469l1.162,-0.467l1.158,-0.467l1.153,-0.467l1.149,-0.465l1.144,-0.466l1.141,-0.464l1.136,-0.464l1.131,-0.463l1.128,-0.462l1.123,-0.462l1.119,-0.462l1.114,-0.46l1.11,-0.46l1.106,-0.459l1.102,-0.459l1.097,-0.458l1.094,-0.457l1.089,-0.457l1.084,-0.456l1.081,-0.455l0.381,-0.161l0.692,-0.301l1.067,-0.466l1.062,-0.464l1.059,-0.464l1.054,-0.464l1.05,-0.462l1.046,-0.462l1.042,-0.461l1.037,-0.461l1.034,-0.46l1.029,-0.459l1.025,-0.458l1.021,-0.458l0.948,-0.426l0.068,-0.032l1.008,-0.467l1.003,-0.466l0.999,-0.466l0.995,-0.465l0.991,-0.464l0.987,-0.464l0.983,-0.462l0.979,-0.462l0.975,-0.462l0.97,-0.46l0.967,-0.46l0.962,-0.459l0.959,-0.459l0.739,-0.354l0.214,-0.105l0.946,-0.466l0.942,-0.465l0.938,-0.464l0.933,-0.464l0.93,-0.462l0.926,-0.462l0.922,-0.461l0.918,-0.461l0.913,-0.46l0.91,-0.458l0.906,-0.459l0.902,-0.457l0.898,-0.456l0.894,-0.456l0.89,-0.455l0.886,-0.455l0.882,-0.453l0.878,-0.453l0.874,-0.452l0.871,-0.451l0.866,-0.451l0.862,-0.45l0.859,-0.449l0.855,-0.448l0.851,-0.447l0.846,-0.447l0.843,-0.446l0.067,-0.035l0.771,-0.412l0.834,-0.447l0.831,-0.447l0.826,-0.445l0.822,-0.445l0.819,-0.443l0.815,-0.443l0.811,-0.443l0.807,-0.441l0.803,-0.441l0.799,-0.44l0.796,-0.44l0.792,-0.438l0.788,-0.438l0.784,-0.437l0.781,-0.436l0.777,-0.436l0.773,-0.434l0.769,-0.434l0.766,-0.433l0.761,-0.433l0.758,-0.432l0.755,-0.431l0.75,-0.43l0.747,-0.429l0.743,-0.429l0.74,-0.428l0.735,-0.427l0.732,-0.427l0.729,-0.425l0.725,-0.425l0.721,-0.424l0.717,-0.424l0.714,-0.422l0.71,-0.422l0.706,-0.422l0.703,-0.42l0.699,-0.42l0.695,-0.419l0.067,-0.04l0.624,-0.379l0.688,-0.419l0.684,-0.418l0.68,-0.417l0.677,-0.416l0.673,-0.416l0.669,-0.415l0.666,-0.414l0.663,-0.413l0.658,-0.413l0.656,-0.412l0.651,-0.411l0.648,-0.41l0.645,-0.41l0.641,-0.409l0.638,-0.408l0.634,-0.408l0.63,-0.406l0.627,-0.406l0.623,-0.405l0.62,-0.405l0.617,-0.404l0.613,-0.403l0.609,-0.402l0.606,-0.401l0.603,-0.401l0.599,-0.4l0.596,-0.399l0.592,-0.399l0.589,-0.398l0.585,-0.397l0.582,-0.396l0.579,-0.395l0.575,-0.395l0.571,-0.394l0.569,-0.394l0.565,-0.392l0.561,-0.392l0.558,-0.391l0.555,-0.391l0.551,-0.39l0.548,-0.388l0.545,-0.389l0.541,-0.387l0.538,-0.387l0.535,-0.386l0.531,-0.385l0.528,-0.385l0.525,-0.384l0.521,-0.383l0.518,-0.382l0.515,-0.382l0.511,-0.381l0.509,-0.38l0.027,-0.021l0.477,-0.359l0.501,-0.379l0.498,-0.379l0.494,-0.378l0.492,-0.377l0.488,-0.376l0.485,-0.376l0.481,-0.375l0.479,-0.374l0.475,-0.374l0.472,-0.373l0.468,-0.372l0.466,-0.371l0.462,-0.371l0.459,-0.369l0.456,-0.37l0.453,-0.368l0.45,-0.368l0.446,-0.367l0.443,-0.366l0.44,-0.365l0.437,-0.365l0.434,-0.364l0.431,-0.363l0.427,-0.363l0.425,-0.362l0.421,-0.361l0.418,-0.36l0.415,-0.36l0.412,-0.359l0.409,-0.358l0.406,-0.358l0.403,-0.357l0.399,-0.356l0.397,-0.355l0.393,-0.355l0.391,-0.354l0.387,-0.353l0.385,-0.352l0.381,-0.352l0.378,-0.351l0.376,-0.351l0.372,-0.349l0.369,-0.349l0.367,-0.348l0.363,-0.348l0.36,-0.346l0.357,-0.346l0.355,-0.346l0.351,-0.344l0.349,-0.344l0.345,-0.343l0.343,-0.343l0.339,-0.341l0.337,-0.341l0.333,-0.341l0.331,-0.339l0.328,-0.339l0.325,-0.338l0.322,-0.337l0.319,-0.337l0.316,-0.336l0.314,-0.335l0.31,-0.335l0.308,-0.334l0.305,-0.333l0.302,-0.332l0.299,-0.332l0.296,-0.331l0.293,-0.33l0.291,-0.329l0.287,-0.329l0.285,-0.328l0.282,-0.328l0.279,-0.326l0.277,-0.326l0.274,-0.326l0.27,-0.324l0.058,-0.07l0.21,-0.254l0.265,-0.323l0.262,-0.323l0.26,-0.322l0.256,-0.321l0.254,-0.321l0.252,-0.32l0.248,-0.319l0.246,-0.318l0.243,-0.318l0.24,-0.316l0.238,-0.317l0.234,-0.315l0.233,-0.315l0.229,-0.314l0.227,-0.313l0.224,-0.313l0.222,-0.312l0.218,-0.311l0.216,-0.31l0.214,-0.31l0.211,-0.309l0.208,-0.308l0.206,-0.308l0.203,-0.306l0.2,-0.307l0.198,-0.305l0.195,-0.305l0.193,-0.304l0.19,-0.303l0.187,-0.302l0.185,-0.302l0.182,-0.301l0.18,-0.301l0.177,-0.299l0.175,-0.299l0.172,-0.298l0.17,-0.298l0.167,-0.297l0.164,-0.296l0.162,-0.295l0.16,-0.295l0.157,-0.294l0.154,-0.293l0.152,-0.292l0.15,-0.292l0.147,-0.291l0.145,-0.291l0.142,-0.289l0.14,-0.289l0.137,-0.288l0.135,-0.288l0.133,-0.287l0.13,-0.286l0.128,-0.285l0.125,-0.285l0.123,-0.283l0.121,-0.284l0.118,-0.282l0.116,-0.282l0.113,-0.281l0.111,-0.28l0.109,-0.28l0.107,-0.279l0.104,-0.278l0.102,-0.278l0.099,-0.276l0.097,-0.277l0.095,-0.275l0.093,-0.275l0.09,-0.274l0.088,-0.273l0.086,-0.272l0.084,-0.272l0.081,-0.272l0.079,-0.27l0.077,-0.27l0.074,-0.269l0.073,-0.268l0.07,-0.268l0.068,-0.267l0.065,-0.266l0.064,-0.266l0.061,-0.265l0.06,-0.264l0.057,-0.264l0.055,-0.263l0.052,-0.262l0.051,-0.261l0.048,-0.261l0.047,-0.261l0.044,-0.259l0.042,-0.259l0.04,-0.258l0.038,-0.258l0.036,-0.256l0.034,-0.257l0.031,-0.255l0.03,-0.255l0.027,-0.254l0.026,-0.254l0.023,-0.252l0.022,-0.253l0.019,-0.251l0.018,-0.251l0.015,-0.25l0.013,-0.25l0.012,-0.249l0.009,-0.248l0.008,-0.248l0.005,-0.247l0.003,-0.247l0.002,-0.246l-0.001,-0.245l-0.002,-0.244l-0.004,-0.244l-0.007,-0.244l-0.008,-0.242l-0.01,-0.243l-0.012,-0.241l-0.014,-0.241l-0.016,-0.24l-0.018,-0.24l-0.019,-0.239l-0.022,-0.239l-0.023,-0.238l-0.026,-0.237l-0.027,-0.237l-0.029,-0.236l-0.018,-0.136l-0.013,-0.1l-0.033,-0.235l-0.035,-0.234l-0.036,-0.234l-0.039,-0.233l-0.04,-0.233l-0.042,-0.232l-0.044,-0.231l-0.046,-0.231l-0.047,-0.231l-0.05,-0.23l-0.051,-0.229l-0.053,-0.229l-0.054,-0.228l-0.057,-0.228l-0.058,-0.227l-0.06,-0.227l-0.062,-0.226l-0.063,-0.225l-0.065,-0.225l-0.067,-0.225l-0.069,-0.224l-0.07,-0.223l-0.072,-0.223l-0.074,-0.222l-0.076,-0.222l-0.077,-0.221l-0.079,-0.221l-0.081,-0.22l-0.082,-0.22l-0.084,-0.219l-0.086,-0.219l-0.087,-0.218l-0.089,-0.218l-0.091,-0.217l-0.092,-0.217l-0.094,-0.216l-0.096,-0.216l-0.098,-0.215l-0.099,-0.215l-0.1,-0.214l-0.102,-0.214l-0.104,-0.213l-0.106,-0.213l-0.107,-0.212l-0.109,-0.212l-0.11,-0.211l-0.112,-0.211l-0.113,-0.21l-0.116,-0.21l-0.116,-0.209l-0.119,-0.209l-0.12,-0.208l-0.121,-0.208l-0.123,-0.208l-0.125,-0.207l-0.126,-0.206l-0.127,-0.206l-0.13,-0.206l-0.13,-0.205l-0.133,-0.204l-0.134,-0.204l-0.135,-0.204l-0.137,-0.203l-0.138,-0.202l-0.14,-0.202l-0.142,-0.202l-0.142,-0.201l-0.145,-0.201l-0.146,-0.2l-0.147,-0.2l-0.149,-0.199l-0.15,-0.199l-0.152,-0.199l-0.153,-0.197l-0.155,-0.198l-0.156,-0.197l-0.158,-0.196l-0.159,-0.196l-0.16,-0.196l-0.162,-0.195l-0.164,-0.194l-0.164,-0.194l-0.167,-0.194l-0.167,-0.193l-0.169,-0.193l-0.171,-0.192l-0.171,-0.192l-0.173,-0.191l-0.175,-0.191l-0.176,-0.19l-0.177,-0.19l-0.179,-0.19l-0.18,-0.189l-0.181,-0.188l-0.183,-0.188l-0.184,-0.188l-0.185,-0.187l-0.187,-0.186l-0.188,-0.186l-0.189,-0.186l-0.191,-0.185l-0.191,-0.185l-0.194,-0.184l-0.194,-0.184l-0.196,-0.183l-0.197,-0.183l-0.198,-0.182l-0.2,-0.182l-0.201,-0.182l-0.202,-0.181l-0.203,-0.18l-0.205,-0.18l-0.205,-0.18l-0.207,-0.179l-0.209,-0.178l-0.209,-0.178l-0.211,-0.178l-0.212,-0.177l-0.213,-0.177l-0.214,-0.176l-0.216,-0.176l-0.216,-0.175l-0.218,-0.175l-0.219,-0.174l-0.22,-0.174l-0.221,-0.174l-0.223,-0.173l-0.223,-0.172l-0.225,-0.172l-0.226,-0.172l-0.227,-0.171l-0.228,-0.171l-0.229,-0.17l-0.23,-0.169l-0.232,-0.17l-0.232,-0.168l-0.234,-0.169l-0.234,-0.167l-0.236,-0.168l-0.237,-0.167l-0.238,-0.166l-0.239,-0.166l-0.24,-0.165l-0.241,-0.165l-0.242,-0.165l-0.02,-0.014l-0.223,-0.15l-0.244,-0.163l-0.245,-0.163l-0.247,-0.162l-0.247,-0.162l-0.248,-0.161l-0.249,-0.161l-0.251,-0.161l-0.251,-0.16l-0.252,-0.159l-0.253,-0.16l-0.254,-0.158l-0.255,-0.158l-0.256,-0.158l-0.257,-0.157l-0.258,-0.157l-0.259,-0.156l-0.26,-0.156l-0.26,-0.155l-0.262,-0.155l-0.262,-0.155l-0.263,-0.154l-0.264,-0.153l-0.265,-0.153l-0.266,-0.153l-0.267,-0.152l-0.268,-0.151l-0.268,-0.152l-0.27,-0.15l-0.27,-0.151l-0.271,-0.149l-0.272,-0.15l-0.272,-0.149l-0.274,-0.148l-0.274,-0.148l-0.275,-0.148l-0.276,-0.147l-0.276,-0.146l-0.278,-0.146l-0.278,-0.146l-0.279,-0.145l-0.28,-0.145l-0.28,-0.144l-0.281,-0.144l-0.565,-0.287l-0.568,-0.284l-0.57,-0.283l-0.573,-0.281l-0.576,-0.279l-0.579,-0.277l-0.581,-0.276l-0.584,-0.273l-0.587,-0.272l-0.589,-0.27l-0.591,-0.268l-0.594,-0.267l-0.596,-0.265l-0.598,-0.263l-0.601,-0.261l-0.603,-0.259l-0.605,-0.258l-0.607,-0.256l-0.609,-0.254l-0.611,-0.252l-0.613,-0.251l-0.615,-0.249l-0.616,-0.247l-0.619,-0.246l-0.62,-0.243l-0.622,-0.242l-0.623,-0.24l-0.625,-0.239l-0.627,-0.237l-0.53,-0.198l-0.098,-0.037l-0.629,-0.232l-0.632,-0.23l-0.632,-0.229l-0.634,-0.227l-0.635,-0.225l-0.636,-0.224l-0.637,-0.222l-0.638,-0.22l-0.639,-0.218l-0.64,-0.217l-0.641,-0.215l-0.642,-0.214l-0.643,-0.212l-0.643,-0.21l-0.644,-0.209l-0.644,-0.207l-0.646,-0.205l-0.645,-0.204l-0.646,-0.202l-0.647,-0.2l-0.647,-0.199l-0.647,-0.197l-0.648,-0.196l-0.647,-0.194l-0.648,-0.192l-0.648,-0.191l-0.648,-0.189l-0.648,-0.188l-0.648,-0.186l-0.648,-0.184l-0.648,-0.183l-0.647,-0.181l-0.647,-0.18l-0.647,-0.178l-0.647,-0.177l-0.646,-0.175l-0.646,-0.173l-0.645,-0.172l-0.029,-0.008l-0.617,-0.157l-0.646,-0.163l-0.645,-0.161l-0.644,-0.16l-0.644,-0.158l-0.642,-0.156l-0.642,-0.156l-0.641,-0.153l-0.639,-0.153l-0.639,-0.15l-0.638,-0.15l-0.636,-0.147l-0.635,-0.147l-0.634,-0.145l-0.444,-0.1l-0.189,-0.041l-0.634,-0.134l-0.631,-0.133l-0.631,-0.131l-0.628,-0.13l-0.627,-0.129l-0.626,-0.127l-0.623,-0.126l-0.622,-0.124l-0.621,-0.123l-0.618,-0.122l-0.616,-0.12l-0.615,-0.119l-0.612,-0.118l-0.611,-0.116l-0.608,-0.115l-0.383,-0.072l-0.224,-0.039l-0.605,-0.105l-0.603,-0.104l-0.601,-0.102l-0.599,-0.101l-0.596,-0.1l-0.593,-0.098l-0.591,-0.098l-0.589,-0.096l-0.586,-0.095l-0.583,-0.093l-0.58,-0.092l-0.578,-0.091l-0.574,-0.09l-0.572,-0.089l-0.568,-0.087l-1.13,-0.172l-1.116,-0.166l-1.104,-0.162l-1.091,-0.157l-1.076,-0.152l-1.063,-0.148l-1.049,-0.143l-1.033,-0.139l-1.019,-0.135l-0.621,-0.081l-0.382,-0.045l-0.989,-0.113l-0.972,-0.11l-0.955,-0.106l-0.938,-0.102l-0.92,-0.098l-0.902,-0.095l-0.884,-0.091l-0.864,-0.087l-0.846,-0.083l-0.825,-0.08l-0.805,-0.076l-0.785,-0.073l-0.763,-0.07l-0.743,-0.066l-0.72,-0.063l-0.698,-0.06l-0.676,-0.057l-0.652,-0.054l-0.63,-0.051l-0.605,-0.048l-0.581,-0.045l-0.557,-0.042l-0.531,-0.039l-0.506,-0.037l-0.479,-0.034l-0.882,-0.061l-0.773,-0.051l-0.661,-0.041l-0.546,-0.033l-0.428,-0.024l-0.207,-0.011l-0.099,-0.005l-0.252,-0.011l0.924,-8.729l0.262,0.043Z"/><path d="M884.027,619.005l0.092,0.02l0.151,0.035l0.096,0.023l0.011,0.003l0.098,0.025l0.123,0.032l0.136,0.036l0.148,0.041l0.161,0.045l0.172,0.05l0.184,0.056l0.195,0.06l0.206,0.065l0.216,0.071l0.227,0.077l0.237,0.082l0.246,0.088l0.256,0.094l0.264,0.1l0.273,0.106l0.281,0.113l0.144,0.059l0.146,0.06l0.148,0.062l0.149,0.064l0.151,0.066l0.153,0.067l0.155,0.069l0.157,0.071l0.158,0.072l0.159,0.075l0.162,0.076l0.163,0.078l0.164,0.08l0.166,0.082l0.167,0.084l0.169,0.086l0.17,0.087l0.171,0.09l0.172,0.092l0.174,0.093l0.175,0.096l0.176,0.098l0.177,0.099l0.178,0.102l0.18,0.104l0.18,0.106l0.181,0.109l0.182,0.11l0.182,0.113l0.184,0.115l0.184,0.117l0.185,0.119l0.186,0.122l0.187,0.124l0.187,0.126l0.187,0.129l0.188,0.131l0.189,0.133l0.188,0.136l0.19,0.138l0.189,0.141l0.19,0.143l0.191,0.146l0.19,0.148l0.19,0.15l0.172,0.139l0.019,0.015l0.189,0.158l0.189,0.16l0.189,0.163l0.189,0.165l0.189,0.168l0.188,0.171l0.189,0.174l0.188,0.176l0.188,0.179l0.187,0.182l0.187,0.184l0.187,0.188l0.186,0.19l0.185,0.193l0.185,0.196l0.185,0.199l0.183,0.201l0.183,0.205l0.182,0.208l0.182,0.21l0.18,0.214l0.18,0.216l0.178,0.22l0.178,0.223l0.177,0.226l0.175,0.228l0.174,0.232l0.173,0.236l0.172,0.238l0.171,0.241l0.169,0.245l0.168,0.248l0.166,0.251l0.165,0.255l0.163,0.257l0.162,0.261l0.16,0.264l0.159,0.268l0.155,0.269l0.079,0.139l0.077,0.137l0.077,0.139l0.076,0.139l0.076,0.14l0.075,0.141l0.075,0.142l0.074,0.142l0.074,0.144l0.073,0.144l0.073,0.146l0.072,0.146l0.072,0.147l0.071,0.147l0.071,0.149l0.07,0.15l0.07,0.15l0.069,0.151l0.068,0.152l0.068,0.154l0.068,0.153l0.066,0.155l0.067,0.156l0.065,0.156l0.065,0.158l0.065,0.158l0.063,0.159l0.063,0.161l0.063,0.161l0.062,0.161l0.061,0.163l0.012,0.032l0.044,0.133l0.053,0.167l0.053,0.167l0.052,0.168l0.052,0.169l0.05,0.169l0.05,0.171l0.05,0.171l0.048,0.172l0.048,0.173l0.047,0.174l0.046,0.175l0.046,0.176l0.045,0.176l0.044,0.177l0.043,0.178l0.043,0.179l0.041,0.18l0.041,0.181l0.04,0.181l0.04,0.183l0.038,0.183l0.038,0.184l0.037,0.185l0.036,0.186l0.035,0.187l0.035,0.187l0.033,0.188l0.033,0.19l0.032,0.19l0.031,0.191l0.03,0.192l0.029,0.192l0.028,0.194l0.028,0.194l0.027,0.196l0.025,0.196l0.025,0.197l0.024,0.198l0.023,0.198l0.022,0.2l0.021,0.2l0.021,0.202l0.019,0.202l0.018,0.203l0.018,0.204l0.016,0.205l0.016,0.206l0.015,0.206l0.013,0.208l0.013,0.208l0.012,0.21l0.01,0.21l0.01,0.211l0.009,0.212l0.008,0.213l0.006,0.213l0.006,0.215l0.005,0.215l0.004,0.217l0.002,0.217l0.002,0.218l0.001,0.219l-0.001,0.22l-0.001,0.221l-0.003,0.222l-0.003,0.222l-0.005,0.224l-0.005,0.224l-0.007,0.225l-0.008,0.227l-0.009,0.227l-0.009,0.228l-0.011,0.229l-0.013,0.23l-0.013,0.23l-0.014,0.232l-0.015,0.232l-0.017,0.234l-0.001,0.02l-0.018,0.214l-0.02,0.235l-0.021,0.236l-0.022,0.237l-0.024,0.238l-0.024,0.239l-0.026,0.24l-0.027,0.24l-0.028,0.242l-0.029,0.242l-0.031,0.243l-0.031,0.244l-0.033,0.246l-0.034,0.246l-0.035,0.247l-0.037,0.247l-0.037,0.249l-0.039,0.25l-0.04,0.251l-0.041,0.251l-0.042,0.253l-0.044,0.253l-0.045,0.254l-0.046,0.256l-0.047,0.256l-0.049,0.257l-0.05,0.258l-0.051,0.259l-0.052,0.26l-0.054,0.261l-0.055,0.262l-0.056,0.263l-0.057,0.263l-0.059,0.265l-0.06,0.266l-0.061,0.266l-0.063,0.268l-0.064,0.268l-0.065,0.27l-0.066,0.27l-0.068,0.272l-0.069,0.272l-0.071,0.273l-0.072,0.274l-0.073,0.276l-0.074,0.276l-0.076,0.277l-0.077,0.278l-0.079,0.279l-0.08,0.28l-0.081,0.281l-0.083,0.282l-0.084,0.283l-0.086,0.284l-0.086,0.285l-0.089,0.286l-0.089,0.287l-0.091,0.288l-0.093,0.288l-0.094,0.29l-0.095,0.291l-0.096,0.292l-0.099,0.293l-0.099,0.294l-0.101,0.295l-0.103,0.295l-0.104,0.297l-0.105,0.298l-0.107,0.299l-0.108,0.3l-0.11,0.301l-0.111,0.302l-0.113,0.302l-0.114,0.304l-0.115,0.305l-0.118,0.306l-0.089,0.231l-0.03,0.076l-0.121,0.308l-0.123,0.308l-0.124,0.31l-0.126,0.31l-0.127,0.312l-0.129,0.313l-0.13,0.313l-0.132,0.315l-0.134,0.316l-0.135,0.316l-0.137,0.318l-0.138,0.319l-0.139,0.32l-0.142,0.321l-0.143,0.322l-0.144,0.323l-0.146,0.324l-0.148,0.325l-0.149,0.326l-0.151,0.327l-0.153,0.328l-0.154,0.329l-0.155,0.331l-0.158,0.331l-0.159,0.332l-0.16,0.334l-0.163,0.334l-0.164,0.336l-0.165,0.337l-0.167,0.337l-0.087,0.175l0.198,-0.071l0.446,-0.159l0.454,-0.161l0.462,-0.162l0.47,-0.164l0.478,-0.166l0.486,-0.168l0.494,-0.17l0.501,-0.171l0.509,-0.172l0.517,-0.175l0.524,-0.175l0.532,-0.177l0.54,-0.178l0.546,-0.18l0.554,-0.181l0.562,-0.181l0.568,-0.183l0.006,-0.002l0.569,-0.184l0.583,-0.187l0.589,-0.188l0.596,-0.188l0.604,-0.19l0.61,-0.19l0.617,-0.191l0.624,-0.191l0.63,-0.192l0.637,-0.193l0.644,-0.193l0.65,-0.193l0.657,-0.194l0.663,-0.194l0.67,-0.194l0.676,-0.194l0.682,-0.195l0.688,-0.194l0.695,-0.195l0.7,-0.194l0.707,-0.194l0.712,-0.194l0.719,-0.194l0.724,-0.193l0.73,-0.193l0.736,-0.193l0.742,-0.192l0.747,-0.191l0.753,-0.191l0.758,-0.19l0.764,-0.19l0.769,-0.188l0.775,-0.188l0.78,-0.187l0.785,-0.186l0.79,-0.185l0.795,-0.183l0.801,-0.183l0.805,-0.181l0.64,-0.142l0.171,-0.038l0.815,-0.18l0.82,-0.179l0.824,-0.177l0.83,-0.175l0.834,-0.174l0.839,-0.172l0.843,-0.171l0.848,-0.169l0.853,-0.167l0.856,-0.165l0.862,-0.163l0.865,-0.161l0.87,-0.159l0.874,-0.157l0.878,-0.154l0.882,-0.153l0.886,-0.15l0.89,-0.148l0.891,-0.145l0.451,-0.072l0.45,-0.071l0.45,-0.07l0.451,-0.07l0.452,-0.069l0.454,-0.069l0.454,-0.068l0.455,-0.067l0.456,-0.066l0.456,-0.066l0.458,-0.065l0.459,-0.065l0.459,-0.063l0.461,-0.063l0.461,-0.062l0.462,-0.062l0.463,-0.06l0.464,-0.06l0.464,-0.06l0.466,-0.058l0.466,-0.058l0.467,-0.056l0.468,-0.056l0.469,-0.056l0.469,-0.054l0.471,-0.054l0.471,-0.053l0.472,-0.052l0.472,-0.051l0.474,-0.05l0.474,-0.049l0.475,-0.049l0.475,-0.048l0.477,-0.046l0.477,-0.046l0.276,-0.026l0.202,-0.018l0.479,-0.042l0.479,-0.041l0.48,-0.039l0.481,-0.039l0.482,-0.038l0.482,-0.037l0.483,-0.036l0.483,-0.035l0.485,-0.034l0.484,-0.034l0.486,-0.032l0.486,-0.031l0.487,-0.03l0.487,-0.029l0.488,-0.028l0.489,-0.027l0.489,-0.026l0.49,-0.025l0.49,-0.024l0.491,-0.023l0.492,-0.022l0.492,-0.021l0.492,-0.02l0.494,-0.018l0.493,-0.018l0.495,-0.016l0.494,-0.015l0.496,-0.014l0.496,-0.013l0.496,-0.012l0.497,-0.011l0.497,-0.01l0.498,-0.008l0.498,-0.007l0.033,-0.001l0.466,-0.001l0.499,0l0.5,0.001l0.5,0.002l0.501,0.003l0.501,0.004l0.501,0.006l0.502,0.007l0.502,0.008l0.503,0.01l0.503,0.011l0.503,0.012l0.504,0.013l0.504,0.015l0.504,0.016l0.505,0.017l0.505,0.018l0.505,0.02l0.506,0.021l0.506,0.023l0.507,0.024l0.507,0.025l0.507,0.026l0.507,0.028l0.508,0.03l0.508,0.03l0.508,0.032l0.508,0.034l0.509,0.035l0.509,0.036l0.509,0.038l0.51,0.039l0.077,0.006l0.432,0.042l0.509,0.051l0.509,0.052l0.509,0.053l0.51,0.055l0.509,0.057l0.51,0.058l0.51,0.059l0.51,0.062l0.51,0.062l0.51,0.064l0.511,0.066l0.51,0.067l0.511,0.069l0.51,0.07l0.511,0.072l0.511,0.073l0.511,0.075l0.511,0.077l0.51,0.078l0.511,0.08l0.511,0.081l0.511,0.083l0.511,0.085l0.511,0.086l0.511,0.088l0.511,0.089l0.511,0.092l0.511,0.092l0.511,0.095l0.511,0.096l0.511,0.098l0.51,0.1l0.511,0.101l0.511,0.103l0.51,0.105l0.511,0.107l0.51,0.108l0.51,0.11l0.51,0.112l0.51,0.113l0.51,0.116l0.51,0.117l0.509,0.119l0.51,0.121l0.509,0.122l0.509,0.125l0.509,0.126l0.508,0.128l0.509,0.13l0.508,0.131l0.508,0.134l0.508,0.135l0.344,0.094l0.161,0.053l0.5,0.167l0.499,0.17l0.499,0.171l0.498,0.173l0.497,0.175l0.498,0.177l0.496,0.178l0.496,0.181l0.496,0.182l0.495,0.185l0.495,0.186l0.494,0.188l0.493,0.19l0.493,0.192l0.493,0.194l0.034,0.014l0.452,0.2l0.484,0.217l0.484,0.219l0.483,0.221l0.482,0.223l0.482,0.225l0.48,0.227l0.48,0.228l0.479,0.231l0.478,0.233l0.478,0.234l0.476,0.236l0.476,0.239l0.475,0.24l0.474,0.243l0.473,0.244l0.472,0.246l0.452,0.238l0.019,0.011l0.464,0.265l0.463,0.267l0.462,0.269l0.461,0.271l0.46,0.273l0.459,0.275l0.458,0.277l0.456,0.279l0.456,0.281l0.454,0.282l0.453,0.285l0.452,0.287l0.451,0.289l0.449,0.29l0.449,0.293l0.447,0.295l0.446,0.297l0.445,0.299l0.443,0.3l0.443,0.303l0.441,0.305l0.439,0.307l0.439,0.309l0.437,0.311l0.436,0.313l0.435,0.315l0.433,0.317l0.432,0.319l0.431,0.321l0.429,0.324l0.428,0.325l0.427,0.327l0.425,0.33l0.424,0.331l0.422,0.333l0.421,0.336l0.42,0.338l0.104,0.085l0.309,0.263l0.409,0.353l0.408,0.356l0.406,0.357l0.405,0.359l0.403,0.362l0.402,0.363l0.4,0.366l0.398,0.367l0.397,0.37l0.395,0.371l0.393,0.374l0.392,0.375l0.39,0.378l0.389,0.38l0.387,0.382l0.385,0.383l0.383,0.386l0.382,0.388l0.38,0.39l0.378,0.392l0.377,0.394l0.375,0.396l0.373,0.399l0.371,0.4l0.37,0.402l0.368,0.405l0.366,0.406l0.364,0.409l0.362,0.41l0.361,0.413l0.359,0.415l0.357,0.416l0.355,0.419l0.353,0.421l0.352,0.423l0.35,0.425l0.347,0.428l0.346,0.429l0.344,0.431l0.343,0.434l0.209,0.267l0.129,0.171l-0.179,-0.118l-0.281,-0.19l-0.457,-0.307l-0.458,-0.304l-0.459,-0.301l-0.459,-0.297l-0.459,-0.295l-0.46,-0.292l-0.46,-0.289l-0.461,-0.286l-0.461,-0.283l-0.461,-0.281l-0.462,-0.277l-0.462,-0.274l-0.463,-0.272l-0.463,-0.268l-0.463,-0.266l-0.463,-0.263l-0.464,-0.26l-0.464,-0.257l-0.465,-0.255l-0.465,-0.252l-0.465,-0.249l-0.466,-0.246l-0.465,-0.243l-0.466,-0.241l-0.467,-0.238l-0.466,-0.235l-0.467,-0.232l-0.467,-0.23l-0.468,-0.227l-0.467,-0.225l-0.468,-0.222l-0.468,-0.219l-0.469,-0.216l-0.468,-0.214l-0.469,-0.212l-0.469,-0.208l-0.469,-0.206l-0.469,-0.204l-0.47,-0.201l-0.47,-0.199l-0.352,-0.147l-0.116,-0.051l-0.463,-0.206l-0.463,-0.202l-0.464,-0.2l-0.464,-0.198l-0.464,-0.195l-0.465,-0.193l-0.464,-0.191l-0.465,-0.188l-0.465,-0.186l-0.466,-0.183l-0.466,-0.181l-0.465,-0.179l-0.467,-0.176l-0.466,-0.174l-0.467,-0.172l-0.466,-0.17l-0.467,-0.167l-0.467,-0.165l-0.468,-0.163l-0.467,-0.16l-0.468,-0.158l-0.468,-0.156l-0.468,-0.154l-0.469,-0.152l-0.468,-0.149l-0.469,-0.148l-0.468,-0.145l-0.469,-0.143l-0.469,-0.14l-0.47,-0.139l-0.469,-0.136l-0.469,-0.135l-0.47,-0.132l-0.47,-0.13l-0.47,-0.128l-0.47,-0.126l-0.47,-0.124l-0.019,-0.005l-0.445,-0.131l-0.465,-0.135l-0.464,-0.133l-0.465,-0.131l-0.465,-0.128l-0.465,-0.127l-0.466,-0.125l-0.465,-0.123l-0.466,-0.121l-0.466,-0.119l-0.466,-0.117l-0.466,-0.115l-0.467,-0.114l-0.467,-0.111l-0.467,-0.11l-0.467,-0.107l-0.467,-0.106l-0.435,-0.097l-0.032,-0.009l-0.461,-0.121l-0.461,-0.12l-0.462,-0.118l-0.462,-0.116l-0.462,-0.114l-0.462,-0.113l-0.463,-0.11l-0.463,-0.109l-0.463,-0.108l-0.464,-0.105l-0.463,-0.104l-0.464,-0.102l-0.464,-0.101l-0.465,-0.098l-0.464,-0.097l-0.15,-0.031l-0.31,-0.084l-0.457,-0.122l-0.458,-0.12l-0.459,-0.119l-0.458,-0.117l-0.459,-0.116l-0.46,-0.114l-0.459,-0.112l-0.461,-0.111l-0.46,-0.109l-0.461,-0.108l-0.461,-0.106l-0.026,-0.005l-0.436,-0.099l-0.461,-0.103l-0.462,-0.101l-0.463,-0.1l-0.462,-0.098l-0.463,-0.097l-0.464,-0.095l-0.463,-0.093l-0.464,-0.092l-0.464,-0.091l-0.464,-0.089l-0.465,-0.088l-0.454,-0.084l-0.011,-0.002l-0.465,-0.084l-0.465,-0.083l-0.465,-0.082l-0.466,-0.08l-0.466,-0.079l-0.466,-0.077l-0.466,-0.075l-0.466,-0.075l-0.467,-0.073l-0.466,-0.071l-0.467,-0.07l-0.467,-0.068l-0.467,-0.068l-0.468,-0.065l-0.467,-0.065l-0.467,-0.063l-0.468,-0.061l-0.468,-0.06l-0.467,-0.059l-0.468,-0.057l-0.468,-0.056l-0.468,-0.055l-0.468,-0.053l-0.468,-0.052l-0.468,-0.051l-0.469,-0.049l-0.468,-0.048l-0.468,-0.047l-0.397,-0.038l-0.071,-0.008l-0.467,-0.053l-0.468,-0.051l-0.467,-0.05l-0.468,-0.049l-0.468,-0.047l-0.467,-0.046l-0.468,-0.045l-0.467,-0.044l-0.468,-0.042l-0.467,-0.041l-0.468,-0.04l-0.467,-0.038l-0.468,-0.038l-0.467,-0.036l-0.467,-0.035l-0.468,-0.033l-0.467,-0.033l-0.467,-0.031l-0.467,-0.03l-0.467,-0.029l-0.466,-0.028l-0.467,-0.026l-0.467,-0.026l-0.466,-0.024l-0.466,-0.023l-0.466,-0.021l-0.466,-0.021l-0.466,-0.02l-0.465,-0.018l-0.466,-0.017l-0.465,-0.016l-0.435,-0.014l-0.03,-0.002l-0.464,-0.018l-0.465,-0.018l-0.464,-0.016l-0.464,-0.015l-0.464,-0.014l-0.464,-0.013l-0.463,-0.012l-0.463,-0.011l-0.463,-0.01l-0.463,-0.008l-0.462,-0.008l-0.462,-0.007l-0.462,-0.005l-0.461,-0.005l-0.461,-0.003l-0.461,-0.003l-0.461,-0.001l-0.46,-0.001l-0.46,0.001l-0.459,0.001l-0.459,0.003l-0.459,0.003l-0.458,0.005l-0.458,0.005l-0.458,0.007l-0.457,0.007l-0.457,0.008l-0.456,0.009l-0.456,0.011l-0.456,0.011l-0.455,0.012l-0.454,0.013l-0.454,0.014l-0.454,0.014l-0.192,0.007l-0.261,0.008l-0.453,0.014l-0.453,0.015l-0.451,0.016l-0.452,0.016l-0.451,0.018l-0.45,0.019l-0.45,0.019l-0.449,0.02l-0.449,0.021l-0.448,0.022l-0.447,0.023l-0.448,0.023l-0.446,0.025l-0.446,0.025l-0.445,0.026l-0.445,0.026l-0.444,0.028l-0.443,0.028l-0.443,0.029l-0.442,0.03l-0.442,0.031l-0.441,0.031l-0.44,0.032l-0.439,0.033l-0.439,0.034l-0.438,0.034l-0.438,0.035l-0.436,0.036l-0.436,0.037l-0.436,0.037l-0.434,0.038l-0.434,0.039l-0.433,0.039l-0.433,0.04l-0.429,0.04l-0.863,0.084l-0.858,0.086l-0.854,0.088l-0.851,0.091l-0.848,0.093l-0.844,0.096l-0.841,0.098l-0.837,0.101l-0.834,0.102l-0.829,0.105l-0.827,0.107l-0.822,0.109l-0.818,0.111l-0.815,0.113l-0.81,0.115l-0.806,0.116l-0.802,0.119l-0.798,0.12l-0.794,0.122l-0.166,0.026l-0.623,0.098l-0.784,0.127l-0.78,0.127l-0.776,0.13l-0.77,0.13l-0.766,0.132l-0.762,0.134l-0.756,0.134l-0.752,0.136l-0.746,0.137l-0.742,0.138l-0.736,0.139l-0.732,0.14l-0.726,0.141l-0.721,0.141l-0.715,0.143l-0.71,0.143l-0.704,0.144l-0.699,0.145l-0.694,0.145l-0.687,0.145l-0.682,0.147l-0.676,0.146l-0.67,0.147l-0.664,0.147l-0.658,0.148l-0.652,0.148l-0.646,0.147l-0.64,0.148l-0.633,0.148l-0.628,0.148l-0.62,0.148l-0.614,0.148l-0.608,0.147l-0.601,0.148l-0.594,0.147l-0.588,0.146l-0.581,0.146l-0.574,0.146l-0.561,0.144l-0.006,0.001l-0.559,0.147l-0.553,0.146l-0.545,0.145l-0.538,0.144l-0.531,0.144l-0.524,0.142l-0.516,0.142l-0.509,0.141l-0.501,0.139l-0.493,0.139l-0.486,0.137l-0.479,0.136l-0.47,0.135l-0.463,0.134l-0.455,0.132l-0.446,0.131l-0.439,0.129l-0.431,0.128l-0.423,0.126l-0.414,0.124l-0.404,0.122l-0.789,0.241l-0.753,0.232l-0.719,0.225l-0.684,0.216l-0.648,0.207l-0.612,0.198l-0.576,0.188l-0.539,0.178l-0.502,0.167l-0.464,0.156l-0.425,0.144l-0.386,0.133l-0.346,0.12l-0.307,0.107l-0.263,0.092l-0.412,0.147l-0.241,0.088l-0.079,0.029l-0.66,0.202l-0.684,0.09l-0.69,-0.026l-0.675,-0.14l-0.643,-0.251l-0.592,-0.355l-0.524,-0.448l-0.443,-0.529l-0.348,-0.596l-0.244,-0.645l-0.133,-0.677l-0.019,-0.689l0.097,-0.683l0.209,-0.657l0.316,-0.613l0.228,-0.347l0.225,-0.34l0.223,-0.339l0.222,-0.338l0.219,-0.337l0.218,-0.335l0.216,-0.335l0.214,-0.334l0.213,-0.332l0.21,-0.332l0.209,-0.33l0.207,-0.329l0.205,-0.328l0.204,-0.328l0.201,-0.326l0.2,-0.325l0.198,-0.324l0.196,-0.322l0.195,-0.322l0.192,-0.321l0.191,-0.32l0.19,-0.318l0.187,-0.318l0.186,-0.316l0.184,-0.316l0.183,-0.314l0.18,-0.313l0.179,-0.313l0.177,-0.311l0.176,-0.31l0.174,-0.309l0.172,-0.308l0.17,-0.307l0.169,-0.306l0.167,-0.305l0.166,-0.304l0.164,-0.303l0.162,-0.302l0.16,-0.301l0.159,-0.299l0.157,-0.299l0.156,-0.298l0.154,-0.296l0.152,-0.296l0.151,-0.295l0.149,-0.293l0.148,-0.293l0.146,-0.291l0.144,-0.291l0.143,-0.289l0.141,-0.288l0.14,-0.288l0.138,-0.286l0.137,-0.286l0.135,-0.284l0.133,-0.283l0.132,-0.282l0.13,-0.282l0.129,-0.28l0.032,-0.069l0.096,-0.21l0.127,-0.278l0.126,-0.277l0.123,-0.275l0.123,-0.275l0.121,-0.274l0.119,-0.273l0.118,-0.272l0.116,-0.27l0.115,-0.27l0.114,-0.269l0.112,-0.268l0.111,-0.267l0.109,-0.266l0.107,-0.265l0.107,-0.264l0.104,-0.263l0.104,-0.262l0.102,-0.261l0.1,-0.26l0.099,-0.259l0.098,-0.258l0.097,-0.257l0.095,-0.256l0.093,-0.255l0.092,-0.254l0.091,-0.254l0.09,-0.252l0.088,-0.251l0.087,-0.25l0.085,-0.25l0.084,-0.248l0.083,-0.248l0.081,-0.246l0.08,-0.246l0.079,-0.244l0.078,-0.244l0.076,-0.243l0.075,-0.242l0.073,-0.24l0.072,-0.24l0.071,-0.239l0.07,-0.238l0.069,-0.237l0.067,-0.236l0.066,-0.236l0.064,-0.234l0.064,-0.233l0.062,-0.233l0.061,-0.231l0.06,-0.231l0.058,-0.229l0.057,-0.229l0.057,-0.228l0.054,-0.227l0.054,-0.225l0.053,-0.225l0.051,-0.225l0.05,-0.223l0.049,-0.222l0.048,-0.221l0.046,-0.221l0.046,-0.219l0.044,-0.219l0.043,-0.218l0.042,-0.217l0.041,-0.216l0.04,-0.215l0.039,-0.214l0.037,-0.213l0.037,-0.212l0.035,-0.212l0.034,-0.21l0.034,-0.21l0.032,-0.209l0.031,-0.208l0.027,-0.189l0.003,-0.018l0.03,-0.206l0.029,-0.205l0.028,-0.205l0.027,-0.203l0.026,-0.203l0.025,-0.201l0.024,-0.201l0.023,-0.2l0.021,-0.2l0.021,-0.198l0.02,-0.197l0.019,-0.197l0.017,-0.196l0.017,-0.195l0.016,-0.194l0.015,-0.193l0.014,-0.193l0.013,-0.192l0.012,-0.19l0.01,-0.19l0.01,-0.19l0.01,-0.188l0.008,-0.187l0.007,-0.187l0.006,-0.186l0.005,-0.185l0.005,-0.185l0.003,-0.183l0.003,-0.183l0.002,-0.182l0,-0.181l0,-0.18l-0.001,-0.179l-0.002,-0.179l-0.002,-0.178l-0.004,-0.177l-0.005,-0.176l-0.005,-0.176l-0.006,-0.175l-0.007,-0.174l-0.008,-0.173l-0.009,-0.172l-0.009,-0.172l-0.011,-0.171l-0.011,-0.17l-0.012,-0.169l-0.013,-0.169l-0.013,-0.168l-0.015,-0.167l-0.015,-0.166l-0.016,-0.165l-0.016,-0.165l-0.018,-0.164l-0.018,-0.164l-0.019,-0.162l-0.02,-0.162l-0.021,-0.161l-0.021,-0.16l-0.022,-0.16l-0.023,-0.159l-0.024,-0.158l-0.024,-0.157l-0.025,-0.157l-0.026,-0.156l-0.026,-0.155l-0.027,-0.154l-0.028,-0.154l-0.028,-0.153l-0.03,-0.153l-0.03,-0.151l-0.03,-0.151l-0.031,-0.15l-0.032,-0.15l-0.033,-0.149l-0.033,-0.148l-0.034,-0.147l-0.035,-0.147l-0.035,-0.146l-0.029,-0.118l-0.006,-0.028l-0.03,-0.146l-0.031,-0.146l-0.031,-0.146l-0.032,-0.144l-0.033,-0.144l-0.034,-0.144l-0.034,-0.143l-0.035,-0.142l-0.035,-0.141l-0.036,-0.141l-0.037,-0.141l-0.037,-0.139l-0.038,-0.139l-0.039,-0.139l-0.039,-0.138l-0.04,-0.137l-0.04,-0.137l-0.041,-0.136l-0.042,-0.136l-0.042,-0.134l-0.043,-0.135l-0.043,-0.134l-0.044,-0.133l-0.044,-0.132l-0.045,-0.132l-0.046,-0.131l-0.046,-0.131l-0.047,-0.13l-0.047,-0.13l-0.048,-0.129l-0.047,-0.126l-0.1,-0.258l-0.1,-0.252l-0.102,-0.251l-0.105,-0.248l-0.106,-0.246l-0.109,-0.243l-0.11,-0.242l-0.112,-0.238l-0.114,-0.237l-0.116,-0.235l-0.117,-0.232l-0.119,-0.23l-0.121,-0.228l-0.123,-0.225l-0.124,-0.223l-0.125,-0.221l-0.128,-0.219l-0.128,-0.217l-0.13,-0.214l-0.132,-0.212l-0.133,-0.21l-0.134,-0.208l-0.135,-0.206l-0.137,-0.203l-0.138,-0.201l-0.139,-0.2l-0.14,-0.196l-0.141,-0.195l-0.142,-0.193l-0.143,-0.19l-0.145,-0.189l-0.145,-0.186l-0.145,-0.184l-0.147,-0.182l-0.148,-0.179l-0.148,-0.178l-0.149,-0.175l-0.149,-0.174l-0.15,-0.171l-0.015,-0.017l-0.134,-0.154l-0.15,-0.168l-0.15,-0.167l-0.15,-0.165l-0.151,-0.162l-0.151,-0.161l-0.152,-0.158l-0.152,-0.157l-0.152,-0.154l-0.152,-0.152l-0.152,-0.15l-0.153,-0.148l-0.152,-0.146l-0.153,-0.144l-0.153,-0.142l-0.152,-0.14l-0.152,-0.138l-0.152,-0.136l-0.152,-0.134l-0.152,-0.131l-0.151,-0.13l-0.151,-0.128l-0.15,-0.126l-0.15,-0.123l-0.15,-0.122l-0.149,-0.12l-0.148,-0.118l-0.148,-0.116l-0.147,-0.113l-0.146,-0.112l-0.146,-0.11l-0.145,-0.108l-0.143,-0.106l-0.143,-0.104l-0.142,-0.102l-0.141,-0.1l-0.14,-0.099l-0.139,-0.096l-0.137,-0.095l-0.136,-0.092l-0.136,-0.091l-0.133,-0.088l-0.133,-0.087l-0.131,-0.085l-0.129,-0.083l-0.128,-0.081l-0.252,-0.157l-0.245,-0.15l-0.238,-0.142l-0.231,-0.135l-0.224,-0.128l-0.215,-0.12l-0.207,-0.114l-0.198,-0.106l-0.189,-0.1l-0.179,-0.092l-0.17,-0.086l-0.159,-0.079l-0.149,-0.072l-0.138,-0.066l-0.126,-0.059l-0.115,-0.053l-0.092,-0.041l-0.01,-0.005l-0.09,-0.04l-0.142,-0.061l-0.086,-0.036l0,0l-0.03,-0.012l0.031,0.006Z"/></svg>