<?xml version="1.0" encoding="utf-8"?>
<!-- Generator: Adobe Illustrator 19.0.0, SVG Export Plug-In . SVG Version: 6.00 Build 0)  -->
<svg version="1.1" id="Calque_1" xmlns="http://www.w3.org/2000/svg" xmlns:xlink="http://www.w3.org/1999/xlink" x="0px" y="0px"
	 viewBox="0 0 145 141.8" style="enable-background:new 0 0 145 141.8;" xml:space="preserve">
<style type="text/css">
	.st0{fill:#F4511E;stroke:#F4511E;stroke-miterlimit:20;}
</style>
<path id="XMLID_19_" class="st0" d="M133.6,115.1c3.5,3.5,3.7,9.1,0.3,12.7c-0.1,0.1-0.2,0.2-0.3,0.3l-5.6,5.6
	c-0.1,0.1-0.3,0.2-0.4,0.4c-3.6,3.3-9.2,3-12.6-0.4L79,97.8c-3.6-3.6-9.5-3.6-13.1,0L30,133.7c-3.4,3.4-9,3.7-12.6,0.4
	c-0.1-0.1-0.1-0.1-0.2-0.2c-0.1-0.1-0.2-0.1-0.2-0.2l-5.6-5.6c-0.1-0.1-0.2-0.1-0.2-0.2c-0.1-0.1-0.1-0.2-0.2-0.2
	c-3.2-3.6-3-9.2,0.4-12.6l35.9-35.9c3.6-3.6,3.6-9.5,0-13.1l-36-36C8,26.7,7.8,21.2,11,17.6c0,0,0,0,0.1-0.1c2-2.3,4.1-4.4,6.4-6.4
	c0,0,0,0,0.1-0.1c3.6-3.2,9.1-3,12.5,0.4l36,36c3.6,3.6,9.5,3.6,13.1,0L115,11.6c3.4-3.4,9-3.7,12.6-0.4c0.1,0.1,0.1,0.1,0.2,0.2
	c0.1,0.1,0.2,0.1,0.2,0.2l5.6,5.6c0.1,0.1,0.2,0.1,0.2,0.2c0.1,0.1,0.1,0.2,0.2,0.2c3.2,3.6,3,9.2-0.4,12.6L97.7,66.1
	c-3.6,3.6-3.6,9.5,0,13.1L133.6,115.1z"/>
</svg>
