<?xml version="1.0" encoding="utf-8"?>
<!-- Generator: Adobe Illustrator 19.0.0, SVG Export Plug-In . SVG Version: 6.00 Build 0)  -->
<svg version="1.1" xmlns="http://www.w3.org/2000/svg" xmlns:xlink="http://www.w3.org/1999/xlink" x="0px" y="0px"
	 viewBox="0 0 100 100" style="enable-background:new 0 0 100 100;" xml:space="preserve">
<style type="text/css">
	.st0{display:none;}
	.st1{display:inline;}
	.st2{fill:#93785A;}
	.st3{fill:#937A61;}
	.st4{fill:#7A6553;}
	.st5{fill:#A58865;}
	.st6{fill:#967B5E;}
	.st7{display:inline;opacity:0.28;fill:#72706D;}
	.st8{display:inline;fill:#EADAB0;}
	.st9{display:inline;fill:#C1C1C1;}
	.st10{display:inline;fill:#FFCC22;}
	.st11{display:inline;fill:#BF9836;}
	.st12{fill:#EDDD9D;}
	.st13{fill:#FFF0A1;}
	.st14{fill:#FF816B;}
	.st15{fill:#CCBF96;}
	.st16{opacity:0.43;fill:#FF816B;}
	.st17{fill:#EA7768;}
</style>
<g id="Calque_1" class="st0">
	<g id="XMLID_9_" class="st1">
		<g id="XMLID_6_">
			<polygon id="XMLID_5_" class="st2" points="33.2,91.7 29.7,89.7 29.7,56.9 33.2,56.9 			"/>
			<polygon id="XMLID_7_" class="st3" points="36.6,89.8 33.2,91.7 33.2,58.9 36.6,58.9 			"/>
			<polygon id="XMLID_8_" class="st4" points="30,60.5 32,61.8 37,60.3 37,64.4 33.7,66.8 32.2,67.3 30,66 			"/>
		</g>
		<polygon id="XMLID_13_" class="st2" points="14.6,76.8 11.1,74.8 11.1,42 14.6,42 		"/>
		<polygon id="XMLID_12_" class="st3" points="18,74.9 14.6,76.8 14.6,44 18,44 		"/>
		<g id="XMLID_14_">
			<polygon id="XMLID_17_" class="st4" points="68.5,67.5 65.1,65.5 65.1,32.7 68.5,32.7 			"/>
			<polygon id="XMLID_16_" class="st4" points="71.9,65.6 68.5,67.5 68.5,34.7 71.9,34.7 			"/>
			<polygon id="XMLID_15_" class="st4" points="65,36.3 66.5,37.6 71,36.2 71,40.2 68.3,42.6 67,43.1 65,41.8 			"/>
		</g>
		<polygon id="XMLID_21_" class="st2" points="85.2,76.8 81.8,74.8 81.8,42 85.2,42 		"/>
		<polygon id="XMLID_20_" class="st3" points="88.6,74.9 85.2,76.8 85.2,44 88.6,44 		"/>
		<g id="XMLID_3_">
			<polygon id="XMLID_1_" class="st5" points="98.8,41.3 32,58.2 4.1,39.7 66.7,31.1 			"/>
			<polygon id="XMLID_2_" class="st6" points="4.1,39.7 3.5,43.2 31.4,61.6 32,58.2 			"/>
			<polygon id="XMLID_4_" class="st6" points="98.8,41.3 98.2,44.7 31.4,61.6 32,58.2 			"/>
		</g>
		<polygon id="XMLID_10_" class="st4" points="11.1,48.6 11.3,52.1 14.6,55 17.4,55 18,52.7 		"/>
		<polygon id="XMLID_11_" class="st4" points="81.9,49.4 81.8,53.3 84.9,55.1 88,55.2 88,47.5 		"/>
	</g>
	<polyline id="XMLID_22_" class="st7" points="19.8,41.1 19.9,41.1 39.9,51.6 54.7,47.3 	"/>
	<path id="XMLID_18_" class="st8" d="M40.2,51.1l-10.9-5.4c-0.5-0.2-0.9-0.5-1.2-0.9l-6.3-6.4l4.4,1.6c0.2,0.1,0.5,0.1,0.8,0.1
		l6.4-0.9l21.6,8L40.2,51.1z"/>
	<path id="XMLID_19_" class="st9" d="M124.3-18.3c0,0-51.5,15.8-79,6.5S81.1-33.1,69-18.3s-10.5-7-17.1-0.3S65.2-5.9,124.3-18.3z"/>
	<path id="XMLID_24_" class="st9" d="M122.7-29.3c0,0-21.9,9.1-34.6,7.9s14.7-9.9,10.1-3.9c-4.5,6-5-1.6-7.6,1.1
		S97.1-20.8,122.7-29.3z"/>
</g>
<g id="Calque_2" class="st0">
	<path id="XMLID_73_" class="st10" d="M194-32l-3.1,71.1l-56.2,3.7l-3.1,0.2c-0.4,0-0.7,0-1.1,0C120,42.3,112,33.7,112,23.1V-32H194
		z"/>
	<g id="XMLID_25_" class="st1">
		<path id="XMLID_69_" d="M127-1.5c0.1,0.1,0.1,0.2,0.1,0.3c0,0.2,0,0.4-0.1,0.6c-0.2,0.3-0.4,0.6-0.7,0.9c-0.2,0.3-0.5,0.4-0.8,0.5
			c-0.4,0.1-0.8-0.1-1.2-0.6c-0.2,0.4-0.4,0.6-0.5,0.7c-0.2,0.1-0.4,0.2-0.6,0.3c-0.4,0.1-0.7,0-1-0.2c-0.3-0.2-0.5-0.6-0.5-1
			c-0.1-0.5-0.1-0.9,0.1-1.4c0.1-0.4,0.3-0.8,0.6-1.1c0.3-0.3,0.7-0.5,1.1-0.7c-0.1-1.2-0.1-2.2,0.1-3c0.2-0.9,0.5-1.3,1-1.4
			c0.3,0,0.5,0,0.7,0.2s0.4,0.5,0.4,1c0.1,0.7,0.1,1.5-0.1,2.4c-0.2,0.9-0.4,1.9-0.8,2.9c0.1,0.3,0.2,0.6,0.3,0.7
			c0.1,0.1,0.2,0.2,0.3,0.2c0.2,0,0.3-0.1,0.4-0.3c0.1-0.2,0.3-0.4,0.5-0.8c0.1-0.1,0.1-0.2,0.2-0.2C126.8-1.6,126.9-1.5,127-1.5z
			 M123.7,0c0.1-0.1,0.2-0.3,0.3-0.6c-0.1-0.3-0.2-0.7-0.3-1c0-0.1-0.1-0.4-0.1-0.7c-0.3,0.2-0.5,0.4-0.7,0.8
			c-0.2,0.4-0.2,0.8-0.1,1.2c0.1,0.4,0.3,0.6,0.6,0.6C123.5,0.2,123.6,0.1,123.7,0z M124.5-6.1c0,0.4,0,1,0,1.6c0,0.7,0.1,1.3,0.2,2
			c0.4-1.6,0.5-2.8,0.4-3.6c0-0.2-0.1-0.4-0.2-0.5c-0.1-0.1-0.1-0.2-0.2-0.2C124.6-6.8,124.5-6.6,124.5-6.1z"/>
		<path id="XMLID_65_" d="M130.8-2.9c0.1,0.1,0.1,0.2,0.1,0.3c0.1,0.3,0,0.5-0.2,0.5c-0.3,0.2-0.7,0.3-1.1,0.4
			c0,0.5-0.2,0.9-0.4,1.3c-0.3,0.4-0.6,0.6-1,0.6c-0.4,0.1-0.7,0-0.9-0.1c-0.3-0.1-0.5-0.3-0.7-0.6c-0.2-0.3-0.3-0.6-0.4-0.9
			c-0.1-0.4-0.1-0.9,0-1.2c0.1-0.4,0.3-0.7,0.6-0.9c0.3-0.3,0.6-0.4,0.9-0.5c0.4-0.1,0.8,0,1.2,0.3c0.3,0.3,0.6,0.6,0.7,1.1
			c0.3-0.1,0.6-0.2,1-0.4c0,0,0.1,0,0.1,0C130.7-3,130.8-3,130.8-2.9z M128.5-1c0.1-0.2,0.2-0.4,0.2-0.7c-0.2-0.1-0.4-0.2-0.5-0.4
			c-0.1-0.2-0.2-0.4-0.3-0.6c0-0.1,0-0.2,0-0.3l0,0c-0.2,0-0.4,0.2-0.5,0.4c-0.1,0.3-0.1,0.6-0.1,1c0.1,0.3,0.2,0.6,0.3,0.7
			c0.2,0.1,0.3,0.2,0.5,0.2C128.3-0.7,128.4-0.8,128.5-1z"/>
		<path id="XMLID_26_" d="M130.7-0.6c-0.1-0.2-0.2-0.6-0.3-1.1c-0.1-0.8-0.2-1.5-0.1-2.2c0-0.2,0.1-0.3,0.2-0.4
			c0.1-0.1,0.3-0.2,0.5-0.2c0.1,0,0.2,0,0.3,0c0.1,0,0.1,0.1,0.1,0.2c0,0.1,0,0.3,0,0.7c0,0.2,0,0.5,0,0.6c0,0.2,0,0.4,0,0.7
			c0.1-0.5,0.2-1,0.4-1.4c0.2-0.4,0.4-0.6,0.6-0.8c0.2-0.2,0.4-0.3,0.6-0.3c0.2,0,0.3,0,0.5,0.1c0.1,0.1,0.2,0.2,0.2,0.4
			c0,0.2,0,0.4,0.1,0.9c0,0.4,0,0.7,0,1c0,0.3,0.1,0.7,0.1,1.1c0,0.2,0,0.4,0,0.5c-0.1,0.1-0.2,0.2-0.4,0.2c-0.2,0-0.3,0-0.4-0.1
			c-0.1-0.1-0.2-0.2-0.2-0.4c0-0.2-0.1-0.6-0.1-1.2c0-0.5,0-0.8-0.1-0.9c0-0.1-0.1-0.1-0.1-0.1c-0.1,0-0.2,0.1-0.3,0.4
			c-0.1,0.2-0.2,0.5-0.3,0.9c-0.1,0.3-0.1,0.7-0.2,1.1c0,0.3-0.1,0.5-0.1,0.6c-0.1,0.1-0.2,0.2-0.4,0.2C131-0.3,130.8-0.3,130.7-0.6
			z"/>
		<path id="XMLID_28_" d="M134.5-6.4c-0.1,0-0.1-0.1-0.2-0.3c0-0.1,0-0.1,0-0.2c0-0.3,0-0.5,0-0.8c0-0.2,0-0.5-0.1-0.8
			c-0.1-0.3,0-0.5,0.1-0.7c0.1-0.2,0.3-0.3,0.5-0.3c0.2,0,0.4,0,0.5,0.1c0.1,0.1,0.2,0.2,0.2,0.4c0,0.2,0,0.5,0,0.9
			c-0.1,0.4-0.1,0.7-0.3,1.1c-0.1,0.2-0.1,0.4-0.2,0.5c-0.1,0.1-0.1,0.1-0.2,0.2C134.7-6.4,134.6-6.4,134.5-6.4z"/>
		<path id="XMLID_30_" d="M137.7-4.9c0,0.3,0.1,0.5,0.1,0.7c0.1,0.4,0.2,0.7,0.2,1c0.1,0.2,0.2,0.4,0.3,0.5c0.1,0.1,0.3,0.1,0.5,0.1
			c0.1,0,0.2-0.1,0.3-0.1c0.1-0.1,0.2-0.2,0.3-0.3c0.1-0.1,0.1-0.1,0.2-0.1c0.1,0,0.1,0,0.2,0.1c0.1,0.1,0.1,0.2,0.1,0.3
			c0,0.1,0,0.2,0,0.3c0,0.1-0.1,0.2-0.1,0.3c-0.3,0.3-0.6,0.5-1,0.6c-0.6,0.1-1-0.1-1.4-0.5c-0.3-0.4-0.6-1-0.7-1.8
			c0-0.3-0.1-0.5-0.1-0.8l-0.3,0.1c-0.2,0-0.3,0-0.4,0c-0.1-0.1-0.1-0.2-0.1-0.3c-0.1-0.3,0-0.5,0.3-0.6l0.5-0.1
			c0-0.7,0-1.3,0.1-1.9c0.1-0.6,0.3-1,0.5-1.4c0.2-0.4,0.5-0.6,0.8-0.6c0.2,0,0.5,0,0.6,0.2c0.2,0.2,0.3,0.5,0.4,0.8
			c0.2,0.9-0.1,1.8-0.7,2.6l1-0.2c0.1,0,0.2,0,0.2,0c0,0,0.1,0.1,0.1,0.2c0.1,0.4-0.2,0.7-0.9,0.8L137.7-4.9z M137.8-8.3
			c-0.1,0.2-0.1,0.6-0.1,1c0,0.4,0,0.9,0,1.3c0.3-0.4,0.5-0.7,0.6-1.2c0.1-0.4,0.1-0.8,0.1-1.1c-0.1-0.3-0.2-0.5-0.3-0.5
			C137.9-8.6,137.8-8.5,137.8-8.3z"/>
		<path id="XMLID_33_" d="M146.2-5.3c0.1,0.5-0.2,0.8-1,0.9c-0.1,0-0.3,0-0.6,0c0.1,0.3,0.3,0.7,0.4,1.2c0.1,0.4,0.2,0.8,0.3,1.1
			c0.1,0.6,0.1,1.1,0,1.5c-0.1,0.4-0.4,0.6-0.7,0.7c-0.4,0.1-0.8-0.2-1.1-0.7c-0.3-0.6-0.5-1.5-0.8-2.7c-0.2-1.1-0.3-2.3-0.3-3.5
			c0-1.2,0.2-2.2,0.5-3.1c0.3-0.8,0.7-1.3,1.2-1.4c0.3-0.1,0.5,0,0.7,0.3c0.2,0.2,0.3,0.5,0.4,1c0.3,1.4-0.3,3-1.6,5
			c0,0.6,0.1,1.1,0.2,1.5c0.1,0.6,0.2,1.2,0.4,1.8c0.2,0.6,0.3,0.9,0.4,0.9c0.2,0,0.2-0.4,0.1-1c-0.1-0.5-0.2-0.9-0.3-1.3
			c-0.1-0.4-0.3-0.9-0.5-1.3c0-0.1,0-0.2,0-0.3c0-0.1,0.1-0.2,0.2-0.3c0.1-0.1,0.1-0.2,0.2-0.2c0.1,0,0.3,0,0.4-0.1
			c0.1,0,0.1,0,0.2,0c0.2,0,0.5-0.1,0.8-0.2c0,0,0.1,0,0.1,0c0.1,0,0.1,0,0.2,0C146-5.6,146.1-5.5,146.2-5.3z M143.8-9.7
			c-0.1,0.4-0.2,0.9-0.2,1.5c0,0.6-0.1,1.3-0.1,1.9c0.4-0.6,0.6-1.2,0.8-1.9c0.1-0.6,0.2-1.2,0.1-1.7c-0.1-0.4-0.2-0.5-0.3-0.5
			C144-10.3,143.9-10.1,143.8-9.7z"/>
		<path id="XMLID_36_" d="M150.1-6.5c0.1,0.1,0.1,0.2,0.1,0.3c0.1,0.3,0,0.5-0.2,0.5c-0.3,0.2-0.7,0.3-1.1,0.4
			c0,0.5-0.2,0.9-0.4,1.3c-0.3,0.4-0.6,0.6-1,0.6c-0.4,0.1-0.7,0-0.9-0.1c-0.3-0.1-0.5-0.3-0.7-0.6c-0.2-0.3-0.3-0.6-0.4-0.9
			c-0.1-0.4-0.1-0.9,0-1.2c0.1-0.4,0.3-0.7,0.6-0.9c0.3-0.3,0.6-0.4,0.9-0.5c0.4-0.1,0.8,0,1.2,0.3c0.3,0.3,0.6,0.6,0.7,1.1
			c0.3-0.1,0.6-0.2,1-0.4c0,0,0.1,0,0.1,0C150-6.6,150-6.6,150.1-6.5z M147.8-4.5c0.1-0.2,0.2-0.4,0.2-0.7c-0.2-0.1-0.4-0.2-0.5-0.4
			c-0.1-0.2-0.2-0.4-0.3-0.6c0-0.1,0-0.2,0-0.3l0,0c-0.2,0-0.4,0.2-0.5,0.4c-0.1,0.3-0.1,0.6-0.1,1c0.1,0.3,0.2,0.6,0.3,0.7
			c0.2,0.1,0.3,0.2,0.5,0.2C147.5-4.3,147.7-4.4,147.8-4.5z"/>
		<path id="XMLID_39_" d="M150-4.1c-0.1-0.2-0.2-0.6-0.3-1.1c-0.1-0.8-0.2-1.5-0.1-2.2c0-0.2,0.1-0.3,0.2-0.4
			c0.1-0.1,0.3-0.2,0.5-0.2c0.1,0,0.2,0,0.3,0c0.1,0,0.1,0.1,0.1,0.2c0,0.1,0,0.3,0,0.7c0,0.2,0,0.5,0,0.6c0,0.2,0,0.4,0,0.7
			c0.1-0.5,0.2-1,0.4-1.4c0.2-0.4,0.4-0.6,0.6-0.8c0.2-0.2,0.4-0.3,0.6-0.3c0.4-0.1,0.6,0.1,0.7,0.5c0,0.1,0,0.3,0,0.6
			c0,0.2,0,0.4,0,0.5c0,0.2,0.1,0.3,0.3,0.3c0.2,0,0.4-0.2,0.6-0.5c0.1-0.1,0.1-0.1,0.2-0.2c0.1,0,0.1,0,0.2,0.1
			c0.1,0.1,0.1,0.1,0.1,0.3c0,0.2,0,0.4-0.1,0.5c-0.1,0.2-0.3,0.4-0.5,0.5c-0.2,0.2-0.4,0.3-0.7,0.3c-0.3,0.1-0.6,0-0.8-0.1
			c-0.2-0.1-0.3-0.3-0.4-0.6c0-0.1,0-0.2,0-0.3c0-0.1,0-0.2,0-0.2c0-0.1-0.1-0.1-0.1-0.1c-0.1,0-0.2,0.1-0.3,0.4
			c-0.1,0.2-0.2,0.5-0.3,0.9C151.1-5.4,151-5,151-4.7c0,0.3-0.1,0.5-0.1,0.6c-0.1,0.1-0.2,0.2-0.4,0.2C150.3-3.8,150.1-3.9,150-4.1z
			"/>
		<path id="XMLID_41_" d="M158.2-7.2c0.1,0.1,0.1,0.2,0.1,0.3c0,0.1,0,0.2,0,0.3c0,0.1-0.1,0.2-0.2,0.2c-0.4,0.4-0.8,0.8-1,1
			l-0.5,0.5c0,1.3-0.1,2.3-0.3,3c-0.2,0.8-0.6,1.2-1.2,1.3c-0.3,0.1-0.6,0-0.8-0.1c-0.2-0.2-0.4-0.4-0.4-0.7c-0.1-0.4,0-0.9,0.2-1.4
			c0.2-0.5,0.7-1.2,1.5-2.1l0-0.4c-0.1,0.2-0.2,0.3-0.3,0.4c-0.1,0.1-0.3,0.2-0.5,0.2c-0.4,0.1-0.7,0-0.9-0.2
			c-0.3-0.2-0.4-0.5-0.5-1c-0.1-0.5-0.1-0.9,0.1-1.4c0.1-0.5,0.4-0.8,0.7-1.2c0.3-0.3,0.7-0.5,1.1-0.6c0.1,0,0.2,0,0.3,0
			c0.1,0,0.1,0.1,0.2,0.2c0.1,0,0.2-0.1,0.4-0.1c0.1,0,0.3,0,0.3,0c0.1,0,0.1,0.1,0.1,0.2c0,0.1,0,0.1,0,0.2c0,0.2,0,0.7,0,1.4
			c0,0.1,0,0.3,0,0.5c0,0.2,0,0.4,0,0.5c0.4-0.4,0.8-0.8,1.1-1.2c0.1-0.1,0.1-0.1,0.2-0.1C158.1-7.3,158.2-7.3,158.2-7.2z
			 M155.5-5.9c0.1-0.2,0.1-0.4,0.1-0.8l0-1.6c-0.2,0.1-0.4,0.2-0.6,0.4c-0.2,0.2-0.3,0.5-0.4,0.8c-0.1,0.3-0.1,0.6,0,1
			c0,0.2,0.1,0.3,0.2,0.4c0.1,0.1,0.2,0.1,0.3,0.1C155.3-5.6,155.4-5.7,155.5-5.9z M155.5-2.1c0.1-0.4,0.2-1,0.2-1.8
			c-0.4,0.5-0.6,0.9-0.8,1.2c-0.1,0.3-0.2,0.6-0.1,0.9c0,0.1,0.1,0.2,0.1,0.2c0,0.1,0.1,0.1,0.2,0.1C155.3-1.5,155.4-1.7,155.5-2.1z
			"/>
		<path id="XMLID_45_" d="M161.9-7.9c0.1,0.1,0.1,0.2,0.1,0.3c0,0.2,0,0.4-0.1,0.6c-0.2,0.3-0.4,0.6-0.8,0.9
			c-0.4,0.3-0.8,0.5-1.2,0.6c-0.6,0.1-1.1,0-1.5-0.2c-0.4-0.3-0.7-0.7-0.8-1.3c-0.1-0.4-0.1-0.8,0-1.2c0.1-0.4,0.3-0.7,0.6-1
			c0.3-0.3,0.6-0.4,1-0.5c0.3-0.1,0.6,0,0.9,0.2c0.2,0.2,0.4,0.4,0.5,0.8c0.1,0.4,0,0.8-0.2,1.1c-0.2,0.3-0.7,0.7-1.3,1
			c0.2,0.2,0.5,0.3,0.9,0.3c0.3,0,0.5-0.2,0.9-0.4c0.3-0.2,0.6-0.5,0.7-0.9c0.1-0.1,0.1-0.2,0.2-0.2C161.7-8,161.8-8,161.9-7.9z
			 M158.7-8.4c-0.1,0.3-0.1,0.6-0.1,1l0,0c0.3-0.1,0.6-0.3,0.7-0.5c0.2-0.2,0.2-0.4,0.2-0.6c0-0.1-0.1-0.2-0.1-0.3
			c-0.1-0.1-0.2-0.1-0.3-0.1C159-8.8,158.8-8.6,158.7-8.4z"/>
		<path id="XMLID_48_" d="M162.4-9.4c0,0.3,0.1,0.5,0.1,0.7c0.1,0.4,0.2,0.7,0.2,1c0.1,0.2,0.2,0.4,0.3,0.5c0.1,0.1,0.3,0.1,0.5,0.1
			c0.1,0,0.2-0.1,0.3-0.1c0.1-0.1,0.2-0.2,0.3-0.3c0.1-0.1,0.1-0.1,0.2-0.1c0.1,0,0.1,0,0.2,0.1s0.1,0.2,0.1,0.3c0,0.1,0,0.2,0,0.3
			c0,0.1-0.1,0.2-0.1,0.3c-0.3,0.3-0.6,0.5-1,0.6c-0.6,0.1-1-0.1-1.4-0.5c-0.3-0.4-0.6-1-0.7-1.8c0-0.3-0.1-0.5-0.1-0.8L161-9.2
			c-0.2,0-0.3,0-0.4,0c-0.1-0.1-0.1-0.1-0.1-0.3c-0.1-0.3,0-0.5,0.3-0.6l0.5-0.1c0-0.7,0-1.3,0.1-1.9c0.1-0.6,0.3-1,0.5-1.4
			c0.2-0.4,0.5-0.6,0.8-0.6c0.2,0,0.5,0,0.6,0.2c0.2,0.2,0.3,0.5,0.4,0.8c0.2,0.9-0.1,1.8-0.7,2.6l1-0.2c0.1,0,0.2,0,0.2,0
			c0,0,0.1,0.1,0.1,0.2c0.1,0.4-0.2,0.7-0.9,0.8L162.4-9.4z M162.4-12.8c-0.1,0.2-0.1,0.6-0.1,1c0,0.4,0,0.9,0,1.3
			c0.3-0.4,0.5-0.7,0.6-1.2c0.1-0.4,0.1-0.8,0.1-1.1c-0.1-0.3-0.2-0.5-0.3-0.5C162.6-13.2,162.5-13,162.4-12.8z"/>
		<path id="XMLID_51_" d="M171.3-9.6c0.1,0.1,0.1,0.2,0.1,0.3c0,0.2,0,0.4-0.1,0.6c-0.2,0.4-0.4,0.7-0.7,0.9c-0.3,0.3-0.6,0.4-1,0.5
			c-1.2,0.2-1.9-0.5-2.3-2.2c0-0.3-0.1-0.5-0.1-0.8l-0.3,0.1c-0.2,0-0.3,0-0.4,0c-0.1-0.1-0.1-0.2-0.1-0.3c-0.1-0.3,0-0.5,0.3-0.6
			l0.5-0.1c0-0.7,0-1.3,0.1-1.9c0.1-0.6,0.3-1,0.5-1.4c0.2-0.4,0.5-0.6,0.8-0.6c0.2,0,0.5,0,0.6,0.2c0.2,0.2,0.3,0.5,0.4,0.8
			c0.2,0.9-0.1,1.8-0.7,2.6l1-0.2c0.1,0,0.2,0,0.2,0c0,0,0.1,0.1,0.1,0.2c0.1,0.4-0.2,0.7-0.9,0.8l-1.1,0.2c0,0.3,0.1,0.5,0.1,0.7
			c0.1,0.6,0.3,1,0.5,1.2c0.2,0.2,0.4,0.3,0.7,0.2c0.3,0,0.5-0.2,0.6-0.4c0.2-0.2,0.4-0.5,0.6-0.8c0.1-0.1,0.1-0.2,0.2-0.2
			C171.1-9.7,171.2-9.7,171.3-9.6z M168.4-13.9c-0.1,0.2-0.1,0.6-0.1,1c0,0.4,0,0.9,0,1.3c0.3-0.4,0.5-0.7,0.6-1.2
			c0.1-0.4,0.1-0.8,0.1-1.1c-0.1-0.3-0.2-0.5-0.3-0.5C168.5-14.3,168.5-14.1,168.4-13.9z"/>
		<path id="XMLID_54_" d="M175.7-10.4c0.1,0.1,0.1,0.2,0.1,0.3c0,0.2,0,0.4-0.1,0.6c-0.2,0.4-0.4,0.7-0.7,0.9
			c-0.2,0.3-0.6,0.4-0.9,0.5c-0.3,0.1-0.5,0-0.7-0.1c-0.2-0.1-0.3-0.4-0.4-0.7c0-0.2,0-0.5,0-0.9c0-0.4,0-0.6,0-0.8
			c0-0.1-0.1-0.1-0.1-0.1c-0.1,0-0.2,0.1-0.3,0.4c-0.1,0.2-0.2,0.5-0.3,0.9c-0.1,0.3-0.1,0.7-0.2,1.1c0,0.5-0.3,0.8-0.7,0.9
			c-0.2,0-0.3,0-0.4-0.1c-0.1-0.1-0.1-0.3-0.2-0.7c0-0.2-0.1-0.3-0.1-0.5l-0.1-0.7c-0.2-0.9-0.2-1.9-0.2-2.9c0-1,0.1-1.9,0.4-2.6
			c0.2-0.7,0.6-1.1,1.1-1.2c0.3,0,0.5,0,0.7,0.2c0.2,0.2,0.3,0.5,0.4,0.9c0.1,0.6,0,1.2-0.2,1.9c-0.2,0.7-0.7,1.5-1.3,2.5
			c0,0.3,0.1,0.6,0.1,0.9c0.1-0.5,0.2-1,0.4-1.3c0.2-0.4,0.4-0.6,0.6-0.8c0.2-0.2,0.4-0.3,0.6-0.3c0.4-0.1,0.6,0.1,0.7,0.5
			c0,0.2,0.1,0.7,0,1.3c0,0.5,0,0.9,0,1c0,0.2,0.1,0.3,0.3,0.3c0.1,0,0.2-0.1,0.4-0.3c0.1-0.2,0.3-0.4,0.5-0.8
			c0.1-0.1,0.1-0.2,0.2-0.2C175.6-10.5,175.6-10.5,175.7-10.4z M171.6-14.9c-0.1,0.3-0.1,0.8-0.1,1.3c0,0.5,0,1.1,0,1.7
			c0.3-0.5,0.5-1,0.6-1.6c0.1-0.5,0.2-1,0.1-1.4c0-0.2-0.1-0.3-0.1-0.4c-0.1-0.1-0.1-0.1-0.2-0.1C171.8-15.4,171.7-15.3,171.6-14.9z
			"/>
		<path id="XMLID_57_" d="M175.1-13.4c-0.1-0.1-0.2-0.2-0.3-0.4c0-0.2,0-0.4,0.1-0.6c0.1-0.2,0.3-0.3,0.6-0.3c0.2,0,0.4,0,0.6,0.1
			c0.2,0.1,0.2,0.2,0.3,0.4c0,0.2,0,0.4-0.1,0.6c-0.1,0.2-0.3,0.3-0.6,0.3C175.4-13.3,175.2-13.3,175.1-13.4z M175.6-8.9
			c-0.2-0.2-0.4-0.6-0.5-1c0-0.3-0.1-0.6-0.1-1c0-0.4,0-0.8,0-1.2c0-0.2,0.1-0.3,0.1-0.4c0.1-0.1,0.2-0.1,0.4-0.2
			c0.3-0.1,0.5,0,0.5,0.2c0,0.1,0,0.5,0,1.1c0,0.7,0,1.1,0,1.3c0,0.2,0.1,0.3,0.1,0.4c0.1,0.1,0.2,0.1,0.3,0.1
			c0.1,0,0.2-0.1,0.4-0.3c0.1-0.2,0.3-0.4,0.5-0.8c0.1-0.1,0.1-0.2,0.2-0.2c0.1,0,0.1,0,0.2,0.1c0.1,0.1,0.1,0.2,0.1,0.3
			c0,0.2,0,0.4-0.1,0.6c-0.4,0.8-0.9,1.3-1.4,1.4C176.1-8.5,175.8-8.6,175.6-8.9z"/>
		<path id="XMLID_60_" d="M178.5-9c-0.2-0.1-0.3-0.3-0.3-0.4c0-0.2,0-0.3,0.1-0.4c0.1-0.1,0.2-0.2,0.5-0.3c0.1,0,0.2,0,0.3,0
			c0.1,0,0.2,0,0.2,0c0-0.2-0.1-0.3-0.2-0.4c-0.1-0.1-0.2-0.2-0.3-0.3c-0.1-0.1-0.2-0.2-0.3-0.3c-0.1,0.4-0.2,0.7-0.4,1
			c-0.1,0.3-0.3,0.5-0.5,0.8c-0.1,0.1-0.2,0.2-0.3,0.2c-0.1,0-0.2,0-0.2-0.1c-0.1-0.1-0.1-0.1-0.1-0.2c0-0.1,0-0.2,0.1-0.3l0.1-0.2
			c0.2-0.5,0.4-0.8,0.5-1.1c0.1-0.2,0.1-0.4,0.2-0.7c0.1-0.3,0.1-0.6,0.3-1c0.1-0.3,0.3-0.4,0.6-0.5c0.2,0,0.3,0,0.4,0
			c0.1,0,0.1,0.1,0.1,0.1c0,0,0,0.1,0,0.2c0,0.1,0,0.2-0.1,0.2c-0.1,0.2-0.1,0.4-0.1,0.6c0,0.1,0.1,0.2,0.1,0.3
			c0.1,0.1,0.2,0.2,0.4,0.3c0.2,0.2,0.4,0.4,0.5,0.6c0.1,0.2,0.2,0.3,0.2,0.5c0,0.2,0,0.5,0,0.7c-0.1,0.2-0.2,0.4-0.4,0.6
			c-0.2,0.2-0.4,0.3-0.7,0.3C178.9-8.9,178.7-8.9,178.5-9z"/>
		<path id="XMLID_62_" d="M183.4-10.1c-0.2-0.1-0.3-0.3-0.3-0.5c0-0.3,0-0.5,0.1-0.7c0.1-0.2,0.3-0.3,0.6-0.4c0.3,0,0.5,0,0.6,0.1
			c0.2,0.1,0.3,0.3,0.3,0.5c0,0.3,0,0.5-0.1,0.7c-0.1,0.2-0.3,0.3-0.6,0.4C183.7-10,183.5-10,183.4-10.1z M183.6-12.2
			c-0.1,0-0.1-0.1-0.2-0.2l0-0.1c0-0.7,0-1.4,0-2.3c0-0.9,0-1.6,0.1-2.3c0-0.4,0.2-0.6,0.7-0.7c0.4-0.1,0.6,0,0.6,0.3
			c0,0.1,0,0.1,0,0.2c0,0.6-0.1,1.4-0.2,2.4c-0.1,0.9-0.2,1.7-0.3,2.4c0,0.2-0.2,0.3-0.4,0.4C183.8-12.1,183.7-12.1,183.6-12.2z"/>
	</g>
	<path id="XMLID_68_" class="st1" d="M127.6,4.6c13.4-2.7,26.8-5.3,40.3-7.7c3.8-0.7,7.6-1.2,11.4-0.8c0-0.2-0.1-0.3-0.1-0.5
		c-1.4,0.8-2.9,1.4-4.3,2c-1.6,0.7-3.2,1.4-4.8,2c-3,1.2-6.1,2.4-9.1,3.6c-6.1,2.3-12.3,4.4-18.6,6.4c-0.3,0.1-0.2,0.6,0.1,0.5
		c6-0.2,12.1-0.3,18.1-0.2c0.6,0,0.7-0.1,1,0.5c0.4,0.3,0.3,0.6-0.1,0.8c-0.2,0.1-0.5,0.2-0.8,0.3c-0.5,0.1-1,0.2-1.5,0.4
		c-0.9,0.4-1.6,1.1-1.9,2c-0.8,1.7-0.1,3.7,1.4,4.8c0.3,0.2,0.6-0.3,0.3-0.5c-1.2-0.8-1.8-2.4-1.3-3.8c0.5-1.6,1.8-2,3.2-2.4
		c0.7-0.2,1.5-0.6,1.6-1.4c0.1-0.8-0.5-1.1-1.3-1.2c-3.1-0.2-6.2-0.1-9.3-0.1c-3.2,0-6.3,0.1-9.5,0.2c0,0.2,0,0.4,0.1,0.5
		c6.4-2,12.7-4.1,18.9-6.5c3.1-1.2,6.1-2.4,9.1-3.6c1.4-0.6,2.8-1.2,4.3-1.8c1.6-0.7,3.2-1.3,4.6-2.2c0.2-0.2,0.1-0.5-0.1-0.5
		c-3.2-0.3-6.4,0-9.6,0.5c-3.4,0.6-6.7,1.2-10.1,1.8c-6.8,1.3-13.7,2.6-20.5,3.9c-3.9,0.8-7.7,1.5-11.6,2.3
		C127.1,4.1,127.3,4.7,127.6,4.6L127.6,4.6z"/>
	<path id="XMLID_23_" class="st11" d="M134.6,42.8l-3.1,0.2c-0.4,0-0.7,0-1.1,0C120,42.3,112,33.7,112,23.1v-5.5
		c0,0-1.4,25.4,28.4,14.1C140.4,31.7,140.7,38.2,134.6,42.8z"/>
</g>
<g id="Calque_3">
	<g id="XMLID_74_">
		<path id="XMLID_100_" class="st12" d="M41.8,66.7L26.5,43.6c-3.6-5.5-2.1-13,3.4-16.6l15.6-10.4c5.5-3.6,13-2.1,16.6,3.4L77.4,43
			c3.6,5.5,2.1,13-3.4,16.6L58.4,70.1C52.9,73.7,45.4,72.2,41.8,66.7z"/>
		<path id="XMLID_99_" class="st13" d="M41.8,65.5L26.5,42.5c-3.6-5.5-2.1-13,3.4-16.6l15.6-10.4c5.5-3.6,13-2.1,16.6,3.4l15.3,23.1
			c3.6,5.5,2.1,13-3.4,16.6L58.4,68.9C52.9,72.5,45.4,71,41.8,65.5z"/>
		<g id="XMLID_84_">
			<g id="XMLID_202_">
				<path id="XMLID_213_" class="st14" d="M39.2,43.1c0.2,0.3,0.2,0.6,0.2,1c0,0.8-0.2,1.5-0.6,1.9c-0.9,1.1-1.9,2-2.9,2.7
					c-1.1,0.7-2.3,1.1-3.6,1.1c-1.8,0-3.2-0.8-4.1-2.5c-0.9-1.7-1.3-3.8-1.3-6.5c0-2.6,0.3-5.5,1-8.7c0.7-3.3,1.6-6.1,2.9-8.4
					c1.3-2.3,2.8-3.5,4.6-3.5c1,0,1.8,0.5,2.4,1.4c0.6,0.9,0.9,2.3,0.9,4c0,2.5-0.7,5.4-2.1,8.7c-1.4,3.3-3.3,6.5-5.6,9.8
					c0.1,0.9,0.4,1.5,0.7,1.8c0.3,0.4,0.8,0.5,1.3,0.5c0.9,0,1.6-0.2,2.3-0.7c0.6-0.5,1.5-1.3,2.5-2.5c0.3-0.3,0.5-0.4,0.8-0.4
					C38.8,42.7,39,42.9,39.2,43.1z M33,26c-0.6,1.7-1.1,3.9-1.6,6.5c-0.5,2.6-0.7,5-0.8,7.4c1.5-2.4,2.7-4.9,3.5-7.4
					c0.9-2.5,1.3-4.7,1.3-6.7c0-1.6-0.3-2.4-0.9-2.4C34.2,23.4,33.6,24.2,33,26z"/>
				<path id="XMLID_210_" class="st14" d="M53.5,40.5c0.1,0.3,0.2,0.6,0.2,1c0,1-0.3,1.6-0.9,1.8c-1.3,0.4-2.6,0.7-4.1,0.8
					c-0.4,1.8-1.2,3.2-2.4,4.2c-1.2,1.1-2.5,1.6-4,1.6c-1.3,0-2.3-0.3-3.2-0.9c-0.9-0.6-1.6-1.4-2-2.4c-0.5-1-0.7-2.1-0.7-3.3
					c0-1.6,0.3-3,0.9-4.3c0.6-1.2,1.4-2.2,2.5-2.9c1.1-0.7,2.2-1.1,3.5-1.1c1.6,0,2.9,0.5,3.8,1.6c1,1.1,1.5,2.5,1.7,4.1
					c1-0.1,2.2-0.3,3.5-0.6c0.2,0,0.3-0.1,0.4-0.1C53.1,40.1,53.3,40.2,53.5,40.5z M44.3,45.8c0.5-0.5,0.8-1.3,1-2.4
					c-0.6-0.4-1.1-1-1.5-1.7c-0.3-0.7-0.5-1.5-0.5-2.3c0-0.3,0-0.7,0.1-1h-0.2c-0.8,0-1.5,0.4-2.1,1.2c-0.6,0.8-0.8,1.9-0.8,3.4
					c0,1.2,0.2,2,0.7,2.6c0.4,0.6,1,0.9,1.6,0.9C43.2,46.6,43.8,46.3,44.3,45.8z"/>
				<path id="XMLID_206_" class="st14" d="M67.7,43.2c0.2,0.3,0.2,0.6,0.2,1c0,0.5-0.1,0.9-0.2,1.1c-0.1,0.3-0.4,0.5-0.7,0.7
					c-1.8,1.2-3.1,2.1-4,2.7l-2,1.3c-0.8,4.3-1.8,7.7-3.1,10.2C56.7,62.8,55,64,53,64c-1.1,0-1.9-0.3-2.6-1c-0.7-0.7-1-1.5-1-2.6
					c0-1.5,0.6-3.1,1.8-4.8c1.2-1.7,3.4-3.8,6.6-6.3l0.2-1.2c-0.4,0.6-0.8,1-1.4,1.3c-0.6,0.3-1.1,0.5-1.7,0.5
					c-1.3,0-2.3-0.5-3.1-1.4c-0.8-0.9-1.2-2.2-1.2-3.7c0-1.7,0.4-3.3,1.2-4.8c0.8-1.5,1.8-2.7,3.1-3.6s2.7-1.4,4.1-1.4
					c0.5,0,0.8,0.1,0.9,0.3c0.2,0.2,0.3,0.5,0.4,1c0.4-0.1,0.9-0.1,1.4-0.1c0.5,0,0.9,0.1,1.1,0.2c0.2,0.2,0.3,0.5,0.3,0.9
					c0,0.3,0,0.4,0,0.6c-0.1,0.6-0.3,2.3-0.8,4.9c-0.1,0.5-0.2,1.1-0.3,1.6c-0.1,0.6-0.2,1.2-0.3,1.9c1.6-1.3,3.2-2.4,4.6-3.3
					c0.3-0.2,0.5-0.3,0.7-0.3C67.3,42.8,67.5,42.9,67.7,43.2z M55.2,59.1c0.7-1.3,1.3-3.3,1.9-6c-1.6,1.4-2.8,2.6-3.5,3.7
					c-0.7,1.1-1.1,2.1-1.1,2.9c0,0.4,0.1,0.6,0.2,0.9c0.1,0.2,0.4,0.3,0.7,0.3C53.9,61,54.5,60.3,55.2,59.1z M57.4,45.9
					c0.4-0.6,0.8-1.4,0.9-2.5l1-5.4c-0.9,0-1.7,0.4-2.4,1c-0.7,0.6-1.3,1.5-1.8,2.5c-0.4,1-0.7,2.2-0.7,3.3c0,0.6,0.1,1.1,0.4,1.4
					c0.3,0.3,0.6,0.5,1.1,0.5C56.5,46.7,56.9,46.4,57.4,45.9z"/>
				<path id="XMLID_203_" class="st14" d="M68.2,49c-0.9-0.6-1.5-1.4-2-2.4c-0.4-1-0.7-2.1-0.7-3.2c0-1.6,0.3-3,0.9-4.3
					c0.6-1.2,1.4-2.2,2.4-2.9c1-0.7,2.2-1.1,3.5-1.1c1.2,0,2.3,0.3,3.2,0.9c0.9,0.6,1.5,1.4,2,2.4c0.4,1,0.7,2.1,0.7,3.2
					c0,1.6-0.3,3-0.9,4.3c-0.6,1.2-1.4,2.2-2.5,2.9c-1,0.7-2.2,1.1-3.4,1.1C70.1,49.9,69,49.6,68.2,49z M73.5,45.3
					c0.5-0.8,0.7-1.9,0.7-3.4c0-1.1-0.2-2-0.6-2.6c-0.4-0.6-0.9-0.9-1.5-0.9c-0.8,0-1.4,0.4-1.9,1.1c-0.5,0.8-0.7,1.9-0.7,3.4
					c0,1.2,0.2,2.1,0.6,2.6c0.4,0.6,0.9,0.8,1.6,0.8C72.4,46.5,73,46.1,73.5,45.3z"/>
			</g>
		</g>
		<path id="XMLID_83_" class="st15" d="M85.3,79c0,0.6-15,1-33.5,1c-18.5,0-33.5-0.5-33.5-1s15-1,33.5-1c10.1,0,19.2,0.1,25.4,0.4
			c0.1,0.1,0.3,0.1,0.4,0.2c0.8,0.4,1.7,0.6,2.6,0.5c0.6-0.1,1.2-0.2,1.7-0.5C84.1,78.6,85.3,78.8,85.3,79z"/>
		<path id="XMLID_82_" class="st14" d="M86.3,65.9c-0.2-0.2-0.5-0.4-1-0.7c-1.1-0.6-2.1-0.5-2.8,0.1c-1.2,1-2.2,1.8-2.9,2.4
			c-0.7,0.6-1.4,1-2,1.4c-0.9,0.6-2.2,1.2-3.9,2L73,71.3c-0.4,0.2-0.7,0.5-0.9,0.8c-0.2,0.3-0.2,0.6-0.1,0.9
			c0.1,0.3,0.3,0.5,0.6,0.7c0.4,0.2,0.8,0.2,1.3,0c1-0.3,2-0.7,2.9-1.1c0.9-0.4,2-1.1,3.1-1.9c0.1,0.4,0.2,0.9,0.3,1.5
			c0.1,0.6,0.1,1.1,0.1,1.6c0,0.5-0.1,1-0.4,1.5c-0.2-0.1-0.4-0.3-0.7-0.5c-0.3-0.2-0.6-0.4-0.8-0.5c-0.7-0.4-1.3-0.4-1.8-0.3
			c-0.5,0.2-0.9,0.5-1.2,1c-0.3,0.6-0.3,1.2,0,1.9c0.2,0.6,0.7,1.1,1.5,1.6c1.8,0.1,3.4,0.1,4.6,0.2c0.2-0.1,0.5-0.3,0.7-0.4
			c0.7-0.5,1.3-1.2,1.7-1.9c0.3-0.7,0.5-1.3,0.5-2c0-0.7-0.1-1.6-0.3-2.7c-0.2-0.7-0.2-1.3-0.3-1.7c0-0.4,0-0.8,0.2-1.1
			c0.2-0.5,0.7-0.9,1.4-1.5c0.3-0.2,0.5-0.4,0.7-0.6c0.2-0.2,0.3-0.4,0.4-0.5C86.5,66.3,86.4,66.1,86.3,65.9z"/>
		<path id="XMLID_81_" class="st16" d="M82.3,43.1c1.7,4.3,2.1,8.9,1.3,13.5c-0.1,0.4,0.6,0.6,0.7,0.2c0.8-4.7,0.4-9.4-1.3-13.8
			C82.8,42.5,82.1,42.7,82.3,43.1L82.3,43.1z"/>
		<path id="XMLID_80_" class="st16" d="M85.5,47.9c0.8,3.4,0.6,6.8-1,10c-0.2,0.4,0.4,0.8,0.6,0.4c1.6-3.3,1.9-6.9,1.1-10.5
			C86.1,47.3,85.4,47.5,85.5,47.9L85.5,47.9z"/>
		<path id="XMLID_79_" class="st17" d="M75.4,77.1c0,0,8,2.3,8.9-3.2c0,0,0.5,3.2-2.6,4.9l-5.2-0.3C76.6,78.5,75.7,77.8,75.4,77.1z"
			/>
		<path id="XMLID_78_" class="st15" d="M76,78.6c0,0,1-0.3,1.2-0.2c0.2,0.1,0.4,0.1,0.5-0.1c0.1-0.2,0.1-0.2,0.3-0.2
			c0.2,0,0.5,0,0.7,0.1s0.4,0.3,0.4,0.3s0,0.1,0.2,0.1s0.3-0.1,0.5-0.2c0.2-0.1,0.4-0.2,0.5-0.1c0.1,0.1,0.4,0.2,0.4,0.3
			s0.1,0.3,0.1,0.3h0.6c0,0,0.1-0.3,0.2-0.2c0.1,0.1,0.2,0.1,0.1,0.1s0,0.1,0.1,0.1c0,0,0.4-0.3,0.4-0.3l0.1-0.1l0.2,0.3
			c0,0-1.3,0.4-1.3,0.4S76,79,76,79V78.6z"/>
		<path id="XMLID_77_" class="st17" d="M85.3,65.2c0,0,1,0.5,1.1,0.9s-0.2,0.7-0.9,1.3c-0.7,0.5-1.5,1.2-1.7,1.7
			c-0.1,0.5-0.2-1.7-0.2-1.7S87.2,66.4,85.3,65.2z"/>
		<path id="XMLID_76_" class="st17" d="M79.9,70.6l-0.1-0.4c0,0-4.8,3.2-5.9,3.5c0,0,3.6-1.1,6-3L79.9,70.6z"/>
		<path id="XMLID_75_" class="st17" d="M78.5,74.5c0,0,1,0.6,1.5,1c0,0,0.4-1,0.4-1.4c0,0,0.4,2.1-0.2,1.9
			C79.5,75.8,78.5,74.5,78.5,74.5z"/>
	</g>
</g>
</svg>
